<?xml version="1.0" encoding="UTF-8" ?>
<!DOCTYPE svg PUBLIC "-//W3C//DTD SVG 1.1//EN" "http://www.w3.org/Graphics/SVG/1.1/DTD/svg11.dtd">
<svg width="100%" height="100%" viewBox="0 0 2000 2000" version="1.1" xmlns="http://www.w3.org/2000/svg">
<path fill="#ff5400" stroke="#ff5400" stroke-width="0.09375" opacity="1.00" d=" M 0.00 0.00 L 2000.00 0.00 L 2000.00 2000.00 L 1426.88 2000.00 C 1418.36 1972.31 1411.73 1944.06 1406.29 1915.62 C 1398.35 1873.60 1398.26 1830.50 1401.91 1788.03 C 1409.51 1699.90 1433.67 1613.74 1435.81 1525.06 C 1436.66 1483.63 1434.06 1441.35 1420.05 1402.00 C 1408.98 1370.62 1390.43 1341.74 1365.49 1319.59 C 1350.72 1306.25 1333.91 1294.99 1315.41 1287.54 C 1300.35 1281.39 1284.25 1278.14 1268.09 1276.82 C 1262.08 1276.28 1256.38 1271.97 1255.21 1265.89 C 1253.73 1257.29 1254.33 1248.42 1255.92 1239.88 C 1256.49 1236.22 1258.54 1232.46 1262.25 1231.24 C 1268.13 1228.82 1274.43 1230.76 1280.45 1231.43 C 1289.98 1232.66 1300.00 1234.21 1309.37 1231.32 C 1315.60 1228.96 1322.10 1227.24 1328.77 1226.84 C 1338.51 1226.39 1348.27 1226.12 1358.02 1225.98 C 1369.88 1225.33 1381.73 1221.59 1391.17 1214.24 C 1396.47 1210.54 1400.53 1204.80 1407.03 1203.05 C 1413.90 1201.05 1421.11 1200.66 1428.05 1198.92 C 1445.96 1194.74 1463.99 1188.34 1478.03 1176.06 C 1484.59 1170.54 1489.77 1163.11 1491.52 1154.62 C 1494.42 1141.76 1490.29 1128.82 1487.65 1116.29 C 1486.76 1111.51 1485.13 1106.85 1484.77 1101.99 C 1484.39 1097.64 1487.65 1094.27 1490.77 1091.75 C 1499.59 1084.61 1510.33 1080.55 1520.23 1075.20 C 1535.91 1066.89 1551.99 1058.28 1564.09 1045.00 C 1574.81 1033.39 1582.11 1018.01 1581.95 1002.02 C 1582.54 985.27 1576.53 969.01 1568.53 954.56 C 1560.29 939.69 1549.12 926.77 1537.63 914.36 C 1532.97 908.84 1527.23 903.43 1525.95 896.01 C 1524.94 886.64 1527.21 877.34 1529.15 868.23 C 1534.58 845.44 1540.47 822.51 1541.11 798.97 C 1542.12 776.72 1538.02 754.67 1533.82 732.92 C 1531.63 721.09 1528.24 709.10 1530.12 696.98 C 1531.30 692.22 1534.82 688.53 1538.60 685.61 C 1545.03 680.18 1552.66 676.47 1559.27 671.29 C 1568.21 664.43 1575.61 655.37 1579.79 644.85 C 1582.35 638.50 1583.64 631.74 1584.47 624.97 C 1586.06 604.61 1584.88 582.88 1574.08 564.95 C 1565.57 550.16 1551.77 539.60 1537.99 530.06 C 1530.91 524.82 1523.34 520.12 1517.17 513.78 C 1510.99 507.57 1508.99 498.46 1508.87 489.97 C 1508.17 473.98 1505.94 457.06 1496.10 443.87 C 1484.96 428.67 1467.25 420.38 1450.04 414.01 C 1420.31 403.32 1389.16 397.32 1358.09 392.06 C 1348.53 390.28 1338.40 389.96 1329.59 385.45 C 1322.58 381.89 1318.85 374.62 1314.63 368.38 C 1308.90 359.94 1303.45 351.08 1295.67 344.33 C 1284.18 334.09 1269.46 328.60 1255.02 323.96 C 1233.20 317.27 1210.91 312.30 1188.99 306.00 C 1172.11 300.96 1157.27 290.48 1145.54 277.50 C 1133.62 264.71 1121.07 252.43 1107.13 241.84 C 1085.05 225.20 1059.68 212.86 1032.79 206.32 C 999.55 198.22 965.12 196.40 931.02 197.22 C 892.34 198.70 853.79 203.32 815.81 210.84 C 774.27 218.90 733.35 230.18 693.57 244.62 C 660.90 256.63 628.78 270.34 598.32 287.25 C 568.91 303.51 540.31 321.69 515.25 344.22 C 503.21 355.28 491.84 367.48 484.16 382.04 C 476.42 396.31 474.02 412.88 474.81 428.93 C 475.65 444.46 477.35 460.26 473.81 475.59 C 472.01 483.72 467.07 490.61 464.29 498.38 C 456.86 517.95 456.00 539.23 456.22 559.93 C 456.14 572.30 457.37 584.61 458.07 596.95 C 458.98 609.34 461.06 621.94 458.38 634.26 C 456.61 642.23 452.15 649.18 448.49 656.37 C 445.54 662.26 442.35 668.08 440.35 674.38 C 435.99 687.38 436.42 701.56 439.32 714.83 C 440.82 720.41 441.60 726.18 441.88 731.95 C 441.53 741.80 438.84 751.37 435.61 760.62 C 431.09 773.88 432.10 788.45 436.48 801.61 C 441.23 816.23 448.62 829.95 457.77 842.27 C 464.46 850.94 472.72 858.58 482.58 863.50 C 492.06 868.29 502.59 870.38 512.98 872.16 C 518.71 873.28 524.95 875.76 527.58 881.40 C 533.24 892.40 534.03 905.01 536.09 917.01 C 552.16 1018.18 566.59 1119.77 573.26 1222.05 C 576.37 1271.60 576.18 1321.34 573.90 1370.93 C 568.77 1469.72 559.61 1568.25 550.86 1666.78 C 544.53 1737.60 537.66 1808.38 531.71 1879.23 C 528.87 1919.48 526.35 1959.76 523.28 2000.00 L 0.00 2000.00 L 0.00 0.00 Z" />
<path fill="#000000" stroke="#000000" stroke-width="0.09375" opacity="1.00" d=" M 815.81 210.84 C 853.79 203.32 892.34 198.70 931.02 197.22 C 965.12 196.40 999.55 198.22 1032.79 206.32 C 1059.68 212.86 1085.05 225.20 1107.13 241.84 C 1121.07 252.43 1133.62 264.71 1145.54 277.50 C 1157.27 290.48 1172.11 300.96 1188.99 306.00 C 1210.91 312.30 1233.20 317.27 1255.02 323.96 C 1269.46 328.60 1284.18 334.09 1295.67 344.33 C 1303.45 351.08 1308.90 359.94 1314.63 368.38 C 1318.85 374.62 1322.58 381.89 1329.59 385.45 C 1338.40 389.96 1348.53 390.28 1358.09 392.06 C 1389.16 397.32 1420.31 403.32 1450.04 414.01 C 1467.25 420.38 1484.96 428.67 1496.10 443.87 C 1505.94 457.06 1508.17 473.98 1508.87 489.97 C 1508.99 498.46 1510.99 507.57 1517.17 513.78 C 1523.34 520.12 1530.91 524.82 1537.99 530.06 C 1551.77 539.60 1565.57 550.16 1574.08 564.95 C 1584.88 582.88 1586.06 604.61 1584.47 624.97 C 1583.64 631.74 1582.35 638.50 1579.79 644.85 C 1575.61 655.37 1568.21 664.43 1559.27 671.29 C 1552.66 676.47 1545.03 680.18 1538.60 685.61 C 1534.82 688.53 1531.30 692.22 1530.12 696.98 C 1528.24 709.10 1531.63 721.09 1533.82 732.92 C 1538.02 754.67 1542.12 776.72 1541.11 798.97 C 1540.47 822.51 1534.58 845.44 1529.15 868.23 C 1527.21 877.34 1524.94 886.64 1525.95 896.01 C 1527.23 903.43 1532.97 908.84 1537.63 914.36 C 1549.12 926.77 1560.29 939.69 1568.53 954.56 C 1576.53 969.01 1582.54 985.27 1581.95 1002.02 C 1582.11 1018.01 1574.81 1033.39 1564.09 1045.00 C 1551.99 1058.28 1535.91 1066.89 1520.23 1075.20 C 1510.33 1080.55 1499.59 1084.61 1490.77 1091.75 C 1487.65 1094.27 1484.39 1097.64 1484.77 1101.99 C 1485.13 1106.85 1486.76 1111.51 1487.65 1116.29 C 1490.29 1128.82 1494.42 1141.76 1491.52 1154.62 C 1489.77 1163.11 1484.59 1170.54 1478.03 1176.06 C 1463.99 1188.34 1445.96 1194.74 1428.05 1198.92 C 1421.11 1200.66 1413.90 1201.05 1407.03 1203.05 C 1400.53 1204.80 1396.47 1210.54 1391.17 1214.24 C 1381.73 1221.59 1369.88 1225.33 1358.02 1225.98 C 1348.27 1226.12 1338.51 1226.39 1328.77 1226.84 C 1322.10 1227.24 1315.60 1228.96 1309.37 1231.32 C 1300.00 1234.21 1289.98 1232.66 1280.45 1231.43 C 1274.43 1230.76 1268.13 1228.82 1262.25 1231.24 C 1258.54 1232.46 1256.49 1236.22 1255.92 1239.88 C 1254.33 1248.42 1253.73 1257.29 1255.21 1265.89 C 1256.38 1271.97 1262.08 1276.28 1268.09 1276.82 C 1284.25 1278.14 1300.35 1281.39 1315.41 1287.54 C 1333.91 1294.99 1350.72 1306.25 1365.49 1319.59 C 1390.43 1341.74 1408.98 1370.62 1420.05 1402.00 C 1434.06 1441.35 1436.66 1483.63 1435.81 1525.06 C 1433.67 1613.74 1409.51 1699.90 1401.91 1788.03 C 1398.26 1830.50 1398.35 1873.60 1406.29 1915.62 C 1411.73 1944.06 1418.36 1972.31 1426.88 2000.00 L 1391.88 2000.00 C 1382.83 1971.09 1376.66 1941.30 1372.87 1911.26 C 1368.07 1873.00 1368.02 1834.22 1371.55 1795.86 C 1375.68 1752.22 1385.35 1709.40 1392.59 1666.23 C 1400.47 1619.55 1406.64 1572.41 1407.14 1525.01 C 1406.74 1498.82 1404.68 1472.52 1398.53 1446.99 C 1390.59 1413.84 1377.67 1381.36 1357.02 1354.02 C 1342.33 1334.77 1323.07 1318.53 1300.43 1309.55 C 1288.31 1304.97 1275.31 1301.47 1262.26 1303.14 C 1254.13 1304.30 1245.70 1306.88 1239.77 1312.83 C 1236.60 1315.85 1235.97 1320.97 1238.15 1324.74 C 1240.83 1329.57 1244.95 1333.34 1248.84 1337.18 C 1272.24 1359.90 1290.55 1387.65 1303.17 1417.68 C 1319.90 1456.80 1327.18 1499.55 1326.90 1541.97 C 1326.82 1554.96 1327.19 1567.98 1326.01 1580.93 C 1325.50 1587.07 1326.08 1593.61 1323.36 1599.32 C 1320.31 1604.71 1311.71 1604.75 1308.65 1599.36 C 1305.94 1593.89 1307.59 1587.58 1307.86 1581.78 C 1310.22 1538.39 1309.31 1494.03 1296.58 1452.14 C 1286.64 1419.01 1270.47 1387.47 1247.38 1361.56 C 1234.30 1346.82 1219.08 1334.04 1202.53 1323.37 C 1188.32 1314.25 1172.94 1306.77 1156.58 1302.44 C 1121.64 1293.08 1083.87 1296.85 1050.57 1310.51 C 1028.51 1319.40 1008.00 1332.31 991.12 1349.12 C 984.14 1355.91 976.70 1362.93 973.44 1372.38 C 971.95 1377.78 972.13 1383.98 975.20 1388.83 C 978.44 1394.12 983.41 1398.08 988.67 1401.25 C 998.27 1407.23 1009.95 1408.47 1021.04 1408.38 C 1030.15 1408.49 1039.21 1407.25 1048.15 1405.61 C 1061.20 1403.10 1074.20 1399.81 1086.33 1394.28 C 1088.47 1393.18 1090.81 1391.93 1091.87 1389.66 C 1092.90 1385.61 1088.91 1382.70 1085.60 1381.49 C 1077.38 1378.69 1068.55 1378.73 1059.97 1378.47 C 1056.33 1378.53 1052.48 1377.78 1049.62 1375.44 C 1047.49 1373.02 1045.81 1369.37 1047.56 1366.30 C 1048.80 1362.78 1052.33 1360.50 1056.00 1360.32 C 1065.40 1359.75 1074.79 1360.96 1084.15 1361.88 C 1101.98 1363.81 1119.86 1367.27 1136.28 1374.74 C 1150.40 1381.02 1163.65 1389.42 1174.88 1400.08 C 1188.90 1413.37 1199.82 1429.77 1207.59 1447.41 C 1222.37 1481.86 1225.94 1519.85 1226.33 1556.97 C 1226.22 1608.49 1220.84 1659.79 1215.76 1711.01 C 1211.42 1752.72 1206.62 1794.39 1201.48 1836.01 C 1197.04 1871.60 1192.45 1907.17 1188.40 1942.80 C 1186.14 1961.89 1183.94 1981.00 1181.03 2000.00 L 1155.81 2000.00 C 1162.01 1961.82 1166.70 1923.42 1171.84 1885.09 C 1177.93 1839.79 1183.49 1794.43 1188.92 1749.06 C 1196.01 1688.85 1202.70 1628.53 1206.04 1567.99 C 1206.03 1554.63 1207.77 1541.27 1206.48 1527.92 C 1205.63 1508.82 1202.77 1489.52 1195.15 1471.85 C 1188.61 1456.04 1178.67 1441.57 1165.80 1430.25 C 1154.75 1420.60 1140.70 1414.37 1126.07 1413.01 C 1113.36 1411.99 1100.57 1413.01 1088.03 1415.13 C 1076.81 1416.73 1066.06 1420.49 1054.97 1422.67 C 1036.28 1426.48 1016.71 1428.70 997.95 1424.15 C 982.10 1420.50 967.43 1411.50 957.49 1398.56 C 946.57 1384.43 940.26 1367.36 935.79 1350.23 C 925.56 1310.05 924.84 1267.44 934.04 1226.99 C 940.02 1200.83 950.66 1175.94 963.50 1152.44 C 966.87 1145.75 969.62 1138.48 969.97 1130.94 C 970.12 1124.98 962.86 1123.00 958.06 1123.54 C 941.60 1125.37 925.71 1118.95 911.27 1111.78 C 894.70 1103.19 879.14 1092.34 866.28 1078.75 C 856.23 1068.02 847.59 1055.04 845.77 1040.14 C 844.09 1030.93 845.76 1021.62 847.58 1012.59 C 847.96 1009.54 848.86 1005.89 846.69 1003.31 C 843.69 1000.92 839.63 1000.90 836.01 1000.42 C 816.36 998.91 796.60 1001.95 777.00 999.50 C 769.34 998.46 761.40 997.62 753.86 999.79 C 749.58 1001.08 745.96 1004.50 744.79 1008.85 C 740.86 1022.02 744.23 1035.71 745.80 1048.96 C 752.46 1099.29 759.64 1149.55 765.84 1199.94 C 771.74 1249.20 778.24 1298.43 781.68 1347.95 C 783.31 1373.96 784.33 1400.01 784.79 1426.07 C 784.91 1474.05 785.27 1522.04 783.88 1570.00 C 783.88 1586.70 783.51 1603.39 782.89 1620.07 C 783.03 1640.06 781.77 1660.03 781.75 1680.02 C 781.71 1692.35 780.78 1704.67 780.83 1717.01 C 780.77 1728.68 780.41 1740.33 779.92 1751.99 C 779.83 1767.33 779.59 1782.67 778.91 1798.00 C 778.85 1819.66 778.52 1841.32 777.89 1862.98 C 778.05 1889.67 776.79 1916.33 776.75 1943.02 C 776.60 1962.02 775.65 1981.00 775.73 2000.00 L 749.51 2000.00 C 751.61 1976.03 753.32 1952.03 754.74 1928.01 C 755.64 1904.60 757.77 1881.27 758.55 1857.86 C 760.17 1832.27 760.38 1806.62 761.39 1781.01 C 761.63 1768.71 761.41 1756.39 762.20 1744.11 C 762.61 1731.74 762.42 1719.35 762.83 1706.98 C 763.79 1692.01 763.28 1677.00 763.87 1662.02 C 764.63 1650.03 764.39 1638.01 764.64 1626.01 C 764.60 1618.00 765.39 1610.01 765.38 1602.00 C 765.59 1585.99 765.49 1569.96 766.28 1553.96 C 766.71 1504.59 767.15 1455.20 766.27 1405.83 C 765.36 1394.92 765.83 1383.94 764.87 1373.04 C 762.72 1321.82 756.13 1270.94 750.06 1220.07 C 744.82 1176.26 739.09 1132.50 732.35 1088.89 C 728.67 1064.75 725.36 1040.54 720.33 1016.63 C 718.34 1007.37 715.88 998.06 711.27 989.73 C 705.44 978.72 696.77 969.61 687.53 961.40 C 673.02 947.93 657.85 935.04 644.99 919.92 C 635.07 908.38 626.42 895.61 620.41 881.58 C 612.77 863.77 608.99 844.35 609.20 824.99 C 608.80 812.98 609.91 801.01 610.87 789.06 C 611.22 783.90 611.39 778.50 609.48 773.60 C 608.46 770.94 605.89 768.92 603.02 768.83 C 597.51 768.43 592.61 771.41 588.05 774.08 C 579.68 779.10 571.59 784.72 564.58 791.55 C 560.46 795.53 557.26 800.61 556.38 806.35 C 553.91 821.62 557.01 836.98 558.68 852.16 C 570.96 955.53 583.58 1058.86 597.21 1162.06 C 602.87 1206.16 606.98 1250.54 606.77 1295.03 C 607.28 1346.79 602.89 1398.40 599.37 1449.99 C 595.60 1500.63 592.24 1551.30 589.04 1601.98 C 585.85 1653.65 582.38 1705.32 579.57 1757.02 C 576.06 1805.97 574.47 1855.03 571.55 1904.02 C 569.92 1936.01 568.64 1968.02 566.78 2000.00 L 523.28 2000.00 C 526.35 1959.76 528.87 1919.48 531.71 1879.23 C 537.66 1808.38 544.53 1737.60 550.86 1666.78 C 559.61 1568.25 568.77 1469.72 573.90 1370.93 C 576.18 1321.34 576.37 1271.60 573.26 1222.05 C 566.59 1119.77 552.16 1018.18 536.09 917.01 C 534.03 905.01 533.24 892.40 527.58 881.40 C 524.95 875.76 518.71 873.28 512.98 872.16 C 502.59 870.38 492.06 868.29 482.58 863.50 C 472.72 858.58 464.46 850.94 457.77 842.27 C 448.62 829.95 441.23 816.23 436.48 801.61 C 432.10 788.45 431.09 773.88 435.61 760.62 C 438.84 751.37 441.53 741.80 441.88 731.95 C 441.60 726.18 440.82 720.41 439.32 714.83 C 436.42 701.56 435.99 687.38 440.35 674.38 C 442.35 668.08 445.54 662.26 448.49 656.37 C 452.15 649.18 456.61 642.23 458.38 634.26 C 461.06 621.94 458.98 609.34 458.07 596.95 C 457.37 584.61 456.14 572.30 456.22 559.93 C 456.00 539.23 456.86 517.95 464.29 498.38 C 467.07 490.61 472.01 483.72 473.81 475.59 C 477.35 460.26 475.65 444.46 474.81 428.93 C 474.02 412.88 476.42 396.31 484.16 382.04 C 491.84 367.48 503.21 355.28 515.25 344.22 C 540.31 321.69 568.91 303.51 598.32 287.25 C 628.78 270.34 660.90 256.63 693.57 244.62 C 733.35 230.18 774.27 218.90 815.81 210.84 Z" />
<path fill="#ffd400" stroke="#ffd400" stroke-width="0.09375" opacity="1.00" d=" M 897.05 224.69 C 932.62 221.78 968.58 222.04 1003.89 227.64 C 1022.32 230.55 1040.49 235.26 1057.86 242.10 C 1059.36 242.75 1061.02 243.21 1062.35 244.22 C 1066.73 249.98 1072.21 255.01 1075.25 261.69 C 1079.00 269.63 1081.10 279.50 1076.48 287.54 C 1070.73 296.99 1059.32 301.02 1048.93 302.70 C 1044.58 303.70 1040.49 307.23 1040.58 311.97 C 1041.07 317.59 1046.77 320.89 1051.99 320.97 C 1069.87 322.56 1087.84 323.36 1105.65 325.61 C 1127.55 328.87 1149.61 331.55 1171.15 336.86 C 1179.54 338.97 1187.86 341.56 1195.68 345.31 C 1214.15 353.57 1226.11 374.06 1225.19 394.13 C 1210.16 393.56 1195.11 393.41 1180.08 393.82 C 1051.38 396.20 922.83 418.79 801.57 462.30 C 747.22 481.99 694.19 505.46 643.20 532.71 C 640.39 530.09 638.96 526.41 636.74 523.34 C 630.67 513.64 622.15 505.02 619.58 493.52 C 615.76 477.55 620.11 460.86 627.75 446.71 C 636.22 431.20 644.52 415.44 649.63 398.44 C 653.08 386.65 656.29 374.36 655.17 361.97 C 654.36 352.05 648.79 343.07 641.20 336.84 C 629.26 326.69 615.01 319.77 600.29 314.68 C 636.50 294.39 674.66 277.71 713.71 263.70 C 772.68 242.45 834.57 229.43 897.05 224.69 Z" />
<path fill="#8f6900" stroke="#8f6900" stroke-width="0.09375" opacity="1.00" d=" M 1062.35 244.22 C 1065.76 244.82 1068.79 246.59 1071.92 248.00 C 1088.04 255.64 1103.19 265.54 1115.93 278.09 C 1121.46 283.71 1127.33 289.49 1130.16 297.02 C 1131.23 299.91 1131.71 303.84 1128.77 305.81 C 1124.39 308.44 1118.96 308.37 1114.02 308.08 C 1092.36 305.84 1070.66 304.09 1048.93 302.70 C 1059.32 301.02 1070.73 296.99 1076.48 287.54 C 1081.10 279.50 1079.00 269.63 1075.25 261.69 C 1072.21 255.01 1066.73 249.98 1062.35 244.22 Z" />
<path fill="#8f6900" stroke="#8f6900" stroke-width="0.09375" opacity="1.00" d=" M 600.01 314.58 L 600.29 314.68 C 615.01 319.77 629.26 326.69 641.20 336.84 C 648.79 343.07 654.36 352.05 655.17 361.97 C 656.29 374.36 653.08 386.65 649.63 398.44 C 644.52 415.44 636.22 431.20 627.75 446.71 C 620.11 460.86 615.76 477.55 619.58 493.52 C 622.15 505.02 630.67 513.64 636.74 523.34 C 638.96 526.41 640.39 530.09 643.20 532.71 C 611.97 549.25 581.37 566.97 551.01 585.05 C 540.31 591.60 529.89 598.60 519.25 605.26 C 514.04 608.25 508.91 611.73 502.98 613.08 C 499.19 614.01 495.45 611.78 493.24 608.83 C 488.54 602.75 487.45 594.93 485.24 587.78 C 483.47 578.62 483.47 569.25 482.72 559.98 C 482.54 541.41 484.39 522.29 492.29 505.25 C 498.18 492.36 507.69 481.60 517.53 471.57 C 536.85 452.45 557.60 434.82 578.85 417.88 C 582.01 415.46 585.16 412.23 585.32 408.01 C 585.06 403.69 581.31 399.90 576.99 399.64 C 573.99 399.64 571.31 401.31 569.01 403.07 C 553.88 415.17 538.91 427.48 524.48 440.40 C 520.57 443.61 516.86 447.49 511.90 449.00 C 508.26 450.15 505.36 446.91 503.82 444.04 C 498.84 434.89 499.30 424.10 499.89 414.04 C 500.93 401.57 506.15 389.74 513.90 379.99 C 523.99 367.09 536.72 356.55 549.73 346.73 C 565.69 334.80 582.67 324.35 600.01 314.58 Z" />
<path fill="#8f6900" stroke="#8f6900" stroke-width="0.09375" opacity="1.00" d=" M 1105.65 325.61 C 1114.49 325.62 1123.24 327.42 1132.01 328.40 C 1158.68 332.17 1185.25 336.71 1211.54 342.60 C 1227.17 346.22 1242.81 350.17 1257.70 356.26 C 1265.94 359.74 1274.33 363.88 1280.17 370.87 C 1283.82 375.65 1286.46 382.11 1284.14 388.06 C 1282.29 393.48 1275.88 394.85 1270.87 395.45 C 1255.62 396.12 1240.44 394.00 1225.18 394.37 L 1225.19 394.13 C 1226.11 374.06 1214.15 353.57 1195.68 345.31 C 1187.86 341.56 1179.54 338.97 1171.15 336.86 C 1149.61 331.55 1127.55 328.87 1105.65 325.61 Z" />
<path fill="#ffd400" stroke="#ffd400" stroke-width="0.09375" opacity="1.00" d=" M 1175.24 412.36 C 1190.82 411.71 1206.41 411.81 1221.99 412.39 C 1269.18 413.12 1316.29 417.37 1362.91 424.73 C 1382.87 427.94 1402.74 431.80 1422.29 436.93 C 1435.13 440.36 1447.89 444.32 1459.93 450.00 C 1466.34 453.19 1472.98 456.74 1477.38 462.58 C 1481.07 467.58 1480.39 474.14 1480.48 480.01 C 1479.99 486.91 1480.68 494.16 1477.76 500.65 C 1476.68 502.93 1474.86 505.50 1472.02 505.35 C 1467.24 505.99 1463.38 502.68 1458.96 501.63 C 1454.93 500.57 1450.34 502.80 1448.76 506.67 C 1446.18 511.20 1449.71 516.92 1454.08 518.84 C 1466.19 524.53 1478.51 529.77 1490.63 535.45 C 1494.77 537.18 1498.42 539.91 1502.69 541.38 C 1519.17 548.98 1534.96 559.43 1545.56 574.45 C 1551.46 582.67 1554.42 592.62 1555.69 602.57 C 1556.74 613.05 1557.05 623.94 1554.05 634.14 C 1551.53 642.47 1543.79 647.44 1536.79 651.75 C 1529.63 655.81 1522.38 660.38 1514.07 661.54 C 1510.12 662.24 1505.50 661.17 1503.20 657.63 C 1498.42 650.40 1495.43 642.15 1493.30 633.79 C 1492.82 631.23 1492.46 628.58 1492.84 625.99 C 1493.18 623.48 1496.40 622.07 1498.52 623.48 C 1503.10 626.07 1506.43 631.20 1512.13 631.49 C 1517.84 631.59 1521.52 624.69 1519.39 619.70 C 1516.64 612.33 1509.65 607.96 1503.88 603.14 C 1487.22 589.73 1469.15 577.89 1449.41 569.54 C 1430.80 561.54 1411.01 556.67 1391.05 553.53 C 1350.68 547.30 1309.82 545.46 1269.04 544.30 C 1216.01 543.92 1162.92 543.33 1109.96 546.19 C 1056.56 548.68 1003.10 554.14 950.94 566.21 C 944.41 567.47 937.84 570.35 931.13 568.50 C 925.18 567.75 920.50 563.43 917.51 558.48 C 911.07 548.21 906.40 536.97 900.76 526.26 C 893.53 512.39 885.73 498.82 877.26 485.67 C 873.88 480.08 869.80 474.57 868.68 468.00 C 868.07 464.42 871.70 462.63 874.29 461.22 C 887.15 454.63 901.31 451.28 915.18 447.51 C 967.18 433.51 1020.46 424.71 1073.96 418.86 C 1107.62 415.36 1141.40 412.95 1175.24 412.36 Z" />
<path fill="#ffd400" stroke="#ffd400" stroke-width="0.09375" opacity="1.00" d=" M 825.45 474.80 C 831.48 473.16 838.26 473.60 843.31 477.60 C 853.82 485.58 860.91 496.99 868.16 507.80 C 877.10 521.73 885.01 536.35 891.30 551.68 C 893.67 557.66 896.57 563.57 897.31 570.04 C 897.65 573.24 896.19 576.61 893.49 578.41 C 888.73 581.70 883.19 583.57 877.87 585.71 C 871.28 588.08 865.00 591.20 858.39 593.52 C 816.93 608.64 777.04 627.64 737.90 647.94 C 731.91 650.52 725.81 654.44 719.01 653.36 C 714.79 652.41 712.12 648.58 709.52 645.43 C 702.61 635.81 696.46 625.66 690.83 615.25 C 681.30 599.17 670.77 583.69 661.61 567.39 C 658.95 562.48 656.15 556.70 658.16 551.06 C 660.49 546.30 665.23 543.43 669.45 540.53 C 688.03 529.36 707.89 520.54 727.62 511.63 C 754.50 499.87 781.53 488.25 809.53 479.37 C 814.78 477.69 820.02 475.88 825.45 474.80 Z" />
<path fill="#ededed" stroke="#ededed" stroke-width="0.09375" opacity="1.00" d=" M 1150.06 562.80 C 1188.36 561.92 1226.67 561.37 1264.98 562.54 C 1290.70 562.80 1316.39 564.16 1342.03 566.08 C 1365.47 568.25 1389.04 570.46 1411.94 576.16 C 1424.62 579.52 1437.48 583.76 1448.02 591.85 C 1459.01 600.71 1465.08 613.89 1470.48 626.59 C 1478.56 645.62 1484.96 665.31 1490.88 685.11 C 1496.66 706.28 1502.52 727.45 1507.49 748.83 C 1512.74 772.08 1514.16 796.33 1510.32 819.92 C 1506.72 842.36 1500.22 864.19 1494.60 886.18 C 1491.80 895.61 1494.41 905.90 1500.27 913.61 C 1511.06 928.01 1525.29 939.46 1535.85 954.06 C 1545.45 967.50 1553.46 983.14 1553.65 1000.01 C 1553.65 1009.00 1553.08 1018.83 1547.19 1026.14 C 1538.32 1037.34 1524.80 1043.15 1512.30 1049.27 C 1503.17 1053.61 1493.81 1057.43 1484.51 1061.38 C 1481.57 1062.54 1477.72 1062.96 1475.26 1060.60 C 1473.57 1057.79 1475.40 1054.55 1477.46 1052.53 C 1481.69 1048.38 1486.43 1044.77 1490.90 1040.88 C 1493.22 1038.89 1494.93 1036.04 1495.35 1033.01 C 1495.05 1029.51 1492.99 1025.52 1489.28 1024.70 C 1485.54 1023.27 1481.57 1025.28 1478.77 1027.72 C 1469.83 1035.40 1460.03 1042.58 1453.82 1052.82 C 1449.01 1060.53 1445.48 1069.94 1448.03 1079.07 C 1452.46 1096.93 1458.90 1114.22 1463.76 1131.96 C 1465.32 1138.04 1466.50 1144.60 1464.75 1150.78 C 1462.33 1157.32 1455.80 1160.94 1449.89 1163.88 C 1442.25 1167.29 1434.44 1170.76 1426.07 1171.82 C 1419.83 1171.75 1412.70 1170.55 1408.80 1165.14 C 1405.31 1159.75 1406.02 1153.07 1405.85 1146.97 C 1405.43 1133.39 1406.03 1119.80 1405.68 1106.23 C 1405.59 1100.41 1399.00 1094.62 1393.40 1097.68 C 1389.33 1099.24 1387.60 1103.96 1387.50 1107.99 C 1387.48 1123.67 1387.29 1139.35 1387.24 1155.03 C 1387.02 1165.11 1387.69 1175.28 1386.08 1185.28 C 1384.86 1190.98 1378.51 1193.06 1373.56 1194.42 C 1363.19 1196.69 1352.40 1197.14 1341.85 1195.99 C 1335.32 1194.96 1328.35 1191.42 1326.23 1184.70 C 1324.24 1177.67 1323.97 1170.27 1323.89 1163.01 C 1323.12 1149.29 1322.45 1135.58 1321.53 1121.88 C 1320.90 1118.19 1318.70 1114.41 1315.03 1113.09 C 1310.96 1111.33 1306.34 1114.17 1304.57 1117.90 C 1303.23 1120.34 1303.29 1123.21 1303.50 1125.93 C 1304.17 1133.25 1303.94 1140.62 1304.89 1147.92 C 1304.92 1160.65 1306.45 1173.34 1305.95 1186.07 C 1305.55 1190.17 1304.74 1194.66 1301.61 1197.63 C 1298.33 1200.56 1293.99 1201.90 1289.76 1202.73 C 1283.55 1203.64 1277.25 1204.66 1270.97 1203.86 C 1258.93 1202.28 1246.84 1200.10 1235.55 1195.47 C 1231.96 1194.07 1228.76 1191.36 1227.54 1187.62 C 1224.88 1179.36 1225.90 1170.55 1225.80 1162.02 C 1226.42 1148.36 1227.48 1134.71 1229.18 1121.14 C 1229.56 1117.19 1231.52 1113.06 1229.80 1109.19 C 1228.20 1104.82 1222.69 1102.20 1218.40 1104.31 C 1214.48 1105.93 1212.77 1110.22 1212.03 1114.11 C 1210.02 1124.97 1209.47 1136.03 1208.43 1147.01 C 1207.86 1155.23 1208.14 1163.93 1204.57 1171.55 C 1201.59 1177.12 1194.74 1178.02 1189.13 1178.91 C 1174.60 1179.65 1159.86 1178.82 1145.71 1175.25 C 1140.92 1174.17 1136.69 1170.98 1134.48 1166.60 C 1131.16 1160.13 1129.56 1152.96 1127.95 1145.92 C 1126.12 1137.33 1124.54 1128.68 1123.61 1119.96 C 1122.39 1114.66 1123.44 1109.17 1125.20 1104.13 C 1126.31 1101.24 1128.42 1097.90 1131.91 1097.93 C 1137.59 1098.04 1142.42 1101.78 1148.00 1102.48 C 1153.47 1102.90 1158.97 1097.60 1157.38 1091.98 C 1156.43 1087.56 1152.10 1085.25 1148.19 1083.90 C 1130.66 1077.51 1112.80 1071.20 1094.11 1069.39 C 1069.70 1067.64 1045.58 1073.79 1022.62 1081.46 C 1004.78 1087.47 987.59 1095.16 970.04 1101.94 C 960.51 1105.74 949.81 1106.90 939.87 1104.00 C 924.98 1099.81 911.31 1092.11 898.72 1083.26 C 889.49 1076.64 880.88 1069.03 873.82 1060.10 C 869.45 1054.48 865.56 1048.18 864.27 1041.09 C 863.03 1035.04 864.48 1028.73 867.40 1023.39 C 870.82 1017.07 875.45 1011.52 880.14 1006.11 C 888.89 996.21 898.25 986.87 907.44 977.39 C 918.48 965.94 930.54 952.82 931.09 936.00 C 931.64 923.02 926.00 910.68 919.02 900.06 C 916.70 896.84 915.02 892.98 911.64 890.70 C 911.22 890.41 910.37 889.81 909.94 889.52 C 907.78 880.09 908.86 870.32 910.20 860.86 C 910.30 859.35 910.93 857.99 912.02 856.95 C 916.30 855.67 918.75 851.54 919.02 847.25 C 920.34 834.85 921.15 822.38 922.79 810.01 C 924.28 797.72 926.06 785.44 926.51 773.06 C 926.49 750.85 916.99 729.73 903.66 712.36 C 890.38 695.14 875.18 679.53 860.12 663.89 C 857.06 660.89 854.43 657.27 850.56 655.27 C 848.14 653.99 845.31 654.25 842.88 655.29 C 834.37 646.70 825.89 638.07 817.75 629.13 C 867.25 607.46 918.96 590.76 971.96 580.15 C 1030.56 568.22 1090.43 564.57 1150.06 562.80 Z" />
<path fill="#8f6900" stroke="#8f6900" stroke-width="0.09375" opacity="1.00" d=" M 620.41 567.60 C 623.43 566.63 626.75 565.92 629.87 566.95 C 634.90 568.39 638.33 572.65 641.63 576.45 C 648.08 584.41 653.55 593.11 659.48 601.46 C 669.59 616.21 680.09 630.76 688.51 646.58 C 691.60 652.62 694.40 659.12 694.57 666.01 C 694.53 672.14 690.17 677.17 685.14 680.16 C 657.13 697.57 629.50 715.62 602.55 734.64 C 570.36 757.54 538.35 780.73 507.56 805.48 C 505.46 807.42 503.95 810.13 503.66 813.00 C 503.95 817.64 508.20 821.95 513.03 821.44 C 519.58 820.64 522.35 812.60 528.98 811.98 C 533.02 812.33 534.69 816.78 535.80 820.11 C 537.94 826.97 537.95 836.06 531.61 840.75 C 525.48 844.56 517.93 844.53 510.99 845.42 C 503.45 844.90 496.29 841.40 490.51 836.62 C 478.16 826.67 469.67 812.69 463.81 798.12 C 459.13 786.28 457.44 772.25 463.66 760.64 C 471.75 744.86 481.71 730.13 490.99 715.04 C 494.20 709.56 498.30 704.56 500.80 698.69 C 503.27 692.59 496.73 685.33 490.39 687.62 C 482.36 690.26 481.15 700.25 475.06 705.19 C 472.67 707.05 468.98 705.95 467.71 703.29 C 465.06 697.49 466.95 691.07 468.18 685.17 C 469.30 677.90 473.47 671.61 477.79 665.84 C 487.06 653.83 498.68 643.89 510.57 634.55 C 529.02 620.30 548.71 607.76 568.56 595.57 C 585.53 585.72 601.90 574.41 620.41 567.60 Z" />
<path fill="#000000" stroke="#000000" stroke-width="0.09375" opacity="1.00" d=" M 1125.59 591.60 C 1133.13 586.35 1141.73 582.30 1150.93 581.15 C 1163.38 579.26 1176.77 583.37 1185.55 592.53 C 1189.47 596.67 1193.25 601.45 1194.27 607.21 C 1193.98 611.36 1191.13 615.10 1187.08 616.26 C 1186.28 616.27 1184.70 616.28 1183.91 616.28 C 1177.77 614.64 1176.36 607.78 1171.86 604.12 C 1166.37 598.91 1158.13 597.94 1150.98 599.37 C 1141.73 601.11 1134.15 607.13 1127.02 612.90 C 1115.80 622.38 1105.30 632.72 1093.66 641.72 C 1079.62 652.74 1064.94 663.18 1048.72 670.76 C 1042.83 673.73 1034.99 667.96 1036.54 661.43 C 1037.41 656.26 1042.62 654.03 1046.73 651.81 C 1061.28 644.31 1074.34 634.32 1087.08 624.12 C 1100.16 613.56 1111.73 601.18 1125.59 591.60 Z" />
<path fill="#000000" stroke="#000000" stroke-width="0.09375" opacity="1.00" d=" M 1365.50 583.67 C 1379.32 582.09 1392.89 588.87 1402.62 598.31 C 1409.99 605.13 1414.55 614.37 1421.94 621.17 C 1425.05 624.10 1430.00 625.16 1431.66 629.51 C 1434.38 635.10 1428.94 641.85 1423.03 641.44 C 1419.56 641.05 1416.45 639.23 1413.60 637.33 C 1406.21 632.09 1401.08 624.47 1395.69 617.35 C 1390.63 610.71 1384.04 604.72 1375.85 602.39 C 1370.85 601.17 1365.28 601.24 1360.67 603.71 C 1355.78 606.23 1351.70 610.14 1348.72 614.74 C 1346.81 617.41 1345.18 620.74 1341.88 621.93 C 1337.73 624.01 1331.93 621.89 1330.61 617.30 C 1328.35 613.22 1331.24 608.89 1333.43 605.49 C 1340.53 594.27 1352.19 585.55 1365.50 583.67 Z" />
<path fill="#000000" stroke="#000000" stroke-width="0.09375" opacity="1.00" d=" M 1148.16 620.15 C 1150.38 616.41 1154.77 613.33 1159.26 614.72 C 1164.60 616.01 1167.32 622.77 1164.51 627.48 C 1160.72 633.88 1156.05 639.73 1151.41 645.53 C 1165.26 651.21 1176.59 661.70 1185.39 673.62 C 1197.98 690.70 1206.28 710.55 1212.20 730.82 C 1225.10 775.58 1226.29 823.04 1220.05 868.99 C 1217.45 888.84 1213.37 908.58 1206.57 927.45 C 1200.80 943.85 1192.60 959.36 1182.65 973.60 C 1172.14 988.18 1159.68 1001.98 1143.60 1010.49 C 1124.70 1021.11 1101.91 1022.71 1080.93 1018.61 C 1077.05 1017.80 1072.58 1015.82 1071.65 1011.55 C 1069.45 1005.48 1075.85 999.26 1081.91 1000.50 C 1092.13 1002.59 1102.65 1002.83 1113.02 1001.89 C 1122.44 1000.90 1131.29 997.21 1139.43 992.50 C 1122.94 995.98 1105.92 989.20 1093.28 978.76 C 1080.60 968.28 1071.29 954.34 1063.93 939.78 C 1053.53 918.85 1047.15 896.14 1043.18 873.17 C 1069.89 857.08 1097.03 841.69 1123.81 825.72 C 1126.66 824.28 1128.11 820.42 1126.47 817.59 C 1124.58 813.95 1120.25 812.97 1116.90 811.20 C 1091.77 799.28 1066.42 787.80 1041.44 775.61 C 1044.04 757.31 1047.84 739.14 1053.63 721.57 C 1033.92 731.19 1012.69 737.69 991.09 741.45 C 987.11 742.26 982.16 741.94 979.48 738.49 C 976.60 735.28 976.91 729.92 980.04 726.99 C 981.83 724.96 984.63 724.45 987.13 723.80 C 1022.88 718.15 1056.78 703.08 1086.26 682.29 C 1110.22 665.30 1131.49 644.37 1148.16 620.15 Z" />
<path fill="#000000" stroke="#000000" stroke-width="0.09375" opacity="1.00" d=" M 1358.75 626.84 C 1363.18 624.88 1368.14 627.64 1370.47 631.51 C 1382.83 649.11 1398.31 664.53 1415.97 676.82 C 1433.22 688.69 1453.00 697.93 1474.16 699.29 C 1478.84 699.41 1483.08 703.30 1483.32 708.02 C 1483.20 710.83 1481.80 713.71 1479.44 715.30 C 1473.43 718.66 1466.36 716.48 1460.00 715.61 C 1468.05 739.25 1472.35 764.08 1473.83 788.98 C 1475.53 811.37 1474.39 833.92 1471.48 856.17 C 1468.22 879.36 1462.64 902.41 1452.85 923.75 C 1446.04 938.27 1437.18 952.45 1424.17 962.19 C 1414.01 969.70 1400.50 974.19 1388.04 970.28 C 1393.38 974.34 1399.11 978.49 1405.98 979.28 C 1411.68 979.75 1417.96 980.02 1422.97 976.77 C 1426.03 975.18 1429.61 972.70 1433.15 974.39 C 1436.89 975.37 1439.56 979.25 1439.37 983.06 C 1438.86 987.18 1435.59 990.29 1432.08 992.14 C 1419.06 1000.09 1402.01 999.32 1388.82 992.18 C 1373.94 984.47 1363.87 970.31 1355.84 956.04 C 1345.56 937.85 1339.51 917.74 1333.33 897.90 C 1330.47 888.30 1328.35 878.51 1326.50 868.68 C 1347.77 854.07 1369.63 840.31 1391.04 825.90 C 1393.73 823.99 1396.08 820.44 1394.60 817.08 C 1393.93 814.74 1391.75 813.35 1389.80 812.20 C 1367.90 799.59 1345.99 787.01 1324.12 774.36 C 1326.03 754.14 1330.47 734.11 1337.13 714.92 C 1344.04 694.75 1354.36 674.68 1371.30 661.14 C 1365.44 654.44 1359.67 647.60 1354.86 640.10 C 1351.85 635.69 1353.44 628.60 1358.75 626.84 Z" />
<path fill="#7c899d" stroke="#7c899d" stroke-width="0.09375" opacity="1.00" d=" M 762.82 655.86 C 780.80 646.29 799.02 637.13 817.75 629.13 C 825.89 638.07 834.37 646.70 842.88 655.29 C 837.90 658.40 837.15 665.58 841.34 669.69 C 857.03 686.33 873.34 702.48 887.61 720.40 C 896.68 731.89 904.36 744.92 907.23 759.43 C 910.05 772.21 907.73 785.28 906.31 798.08 C 904.64 810.93 903.18 823.81 902.13 836.73 C 901.72 841.91 900.40 847.45 902.51 852.42 C 904.25 855.98 908.32 857.15 912.02 856.95 C 910.93 857.99 910.30 859.35 910.20 860.86 C 908.86 870.32 907.78 880.09 909.94 889.52 C 910.37 889.81 911.22 890.41 911.64 890.70 C 909.47 890.11 907.14 889.15 904.93 890.03 C 900.39 891.31 897.37 896.75 899.27 901.21 C 901.54 906.78 905.82 911.23 908.36 916.68 C 911.78 923.66 914.82 931.76 912.47 939.57 C 910.38 947.67 904.83 954.24 899.24 960.24 C 892.28 967.69 884.96 975.38 875.36 979.36 C 866.03 983.09 855.78 981.26 846.03 981.20 C 832.72 980.18 819.32 979.91 806.02 981.06 C 794.70 981.48 783.26 983.05 772.04 980.74 C 741.60 975.64 714.63 959.01 690.98 939.89 C 673.77 925.92 657.66 910.18 645.48 891.55 C 636.59 877.87 630.81 862.24 628.40 846.12 C 624.27 821.13 628.42 795.83 632.41 771.12 C 635.69 752.77 644.85 735.36 658.99 723.08 C 679.89 704.53 704.11 690.29 727.97 675.94 C 739.52 669.14 751.14 662.44 762.82 655.86 Z" />
<path fill="#000000" stroke="#000000" stroke-width="0.09375" opacity="1.00" d=" M 842.88 655.29 C 845.31 654.25 848.14 653.99 850.56 655.27 C 854.43 657.27 857.06 660.89 860.12 663.89 C 875.18 679.53 890.38 695.14 903.66 712.36 C 916.99 729.73 926.49 750.85 926.51 773.06 C 926.06 785.44 924.28 797.72 922.79 810.01 C 921.15 822.38 920.34 834.85 919.02 847.25 C 918.75 851.54 916.30 855.67 912.02 856.95 C 908.32 857.15 904.25 855.98 902.51 852.42 C 900.40 847.45 901.72 841.91 902.13 836.73 C 903.18 823.81 904.64 810.93 906.31 798.08 C 907.73 785.28 910.05 772.21 907.23 759.43 C 904.36 744.92 896.68 731.89 887.61 720.40 C 873.34 702.48 857.03 686.33 841.34 669.69 C 837.15 665.58 837.90 658.40 842.88 655.29 Z" />
<path fill="#ededed" stroke="#ededed" stroke-width="0.09375" opacity="1.00" d=" M 1147.47 670.74 C 1152.88 668.82 1158.73 671.64 1162.13 675.91 C 1179.57 696.19 1190.00 721.54 1196.50 747.24 C 1207.55 792.79 1207.13 840.96 1196.41 886.54 C 1190.88 909.52 1182.55 932.01 1170.14 952.20 C 1167.09 957.13 1163.58 963.27 1157.16 963.86 C 1151.06 964.92 1144.83 960.23 1144.06 954.14 C 1143.10 949.12 1146.14 944.70 1148.76 940.74 C 1159.82 923.17 1167.21 903.50 1172.27 883.43 C 1178.23 859.47 1180.81 834.72 1180.24 810.05 C 1179.92 787.94 1176.85 765.83 1170.69 744.57 C 1164.91 724.94 1156.20 705.81 1142.67 690.26 C 1137.02 684.29 1139.40 673.17 1147.47 670.74 Z" />
<path fill="#ededed" stroke="#ededed" stroke-width="0.09375" opacity="1.00" d=" M 1425.42 718.80 C 1429.97 717.10 1435.49 718.59 1438.54 722.38 C 1440.88 725.14 1441.86 728.71 1442.95 732.10 C 1450.41 756.34 1453.93 781.70 1454.40 807.02 C 1454.91 831.49 1452.75 856.07 1447.02 879.89 C 1442.64 897.80 1436.34 915.51 1426.08 930.95 C 1420.86 938.62 1414.66 945.91 1406.67 950.79 C 1401.86 953.64 1394.98 953.09 1391.30 948.66 C 1387.47 944.67 1387.39 938.01 1390.70 933.68 C 1393.31 930.27 1397.28 928.27 1400.05 925.01 C 1411.38 912.38 1417.45 896.07 1422.03 879.99 C 1429.03 854.30 1431.04 827.50 1430.02 800.97 C 1429.09 778.58 1425.56 756.18 1418.43 734.89 C 1416.18 728.73 1418.97 720.98 1425.42 718.80 Z" />
<path fill="#171f21" stroke="#171f21" stroke-width="0.09375" opacity="1.00" d=" M 588.05 774.08 C 592.61 771.41 597.51 768.43 603.02 768.83 C 605.89 768.92 608.46 770.94 609.48 773.60 C 611.39 778.50 611.22 783.90 610.87 789.06 C 609.91 801.01 608.80 812.98 609.20 824.99 C 608.99 844.35 612.77 863.77 620.41 881.58 C 626.42 895.61 635.07 908.38 644.99 919.92 C 657.85 935.04 673.02 947.93 687.53 961.40 C 696.77 969.61 705.44 978.72 711.27 989.73 C 715.88 998.06 718.34 1007.37 720.33 1016.63 C 725.36 1040.54 728.67 1064.75 732.35 1088.89 C 739.09 1132.50 744.82 1176.26 750.06 1220.07 C 756.13 1270.94 762.72 1321.82 764.87 1373.04 C 765.83 1383.94 765.36 1394.92 766.27 1405.83 C 767.15 1455.20 766.71 1504.59 766.28 1553.96 C 765.49 1569.96 765.59 1585.99 765.38 1602.00 C 765.39 1610.01 764.60 1618.00 764.64 1626.01 C 764.39 1638.01 764.63 1650.03 763.87 1662.02 C 763.28 1677.00 763.79 1692.01 762.83 1706.98 C 762.42 1719.35 762.61 1731.74 762.20 1744.11 C 761.41 1756.39 761.63 1768.71 761.39 1781.01 C 760.38 1806.62 760.17 1832.27 758.55 1857.86 C 757.77 1881.27 755.64 1904.60 754.74 1928.01 C 753.32 1952.03 751.61 1976.03 749.51 2000.00 L 566.78 2000.00 C 568.64 1968.02 569.92 1936.01 571.55 1904.02 C 574.47 1855.03 576.06 1805.97 579.57 1757.02 C 582.38 1705.32 585.85 1653.65 589.04 1601.98 C 592.24 1551.30 595.60 1500.63 599.37 1449.99 C 602.89 1398.40 607.28 1346.79 606.77 1295.03 C 606.98 1250.54 602.87 1206.16 597.21 1162.06 C 583.58 1058.86 570.96 955.53 558.68 852.16 C 557.01 836.98 553.91 821.62 556.38 806.35 C 557.26 800.61 560.46 795.53 564.58 791.55 C 571.59 784.72 579.68 779.10 588.05 774.08 Z" />
<path fill="#000000" stroke="#000000" stroke-width="0.09375" opacity="1.00" d=" M 1281.91 907.13 C 1287.81 904.88 1294.33 907.28 1299.02 911.07 C 1303.37 914.73 1306.72 919.38 1310.03 923.97 C 1320.28 938.55 1329.30 954.02 1336.70 970.24 C 1340.96 979.67 1344.49 989.58 1345.63 999.93 C 1346.50 1008.55 1344.80 1017.65 1339.81 1024.85 C 1335.40 1031.30 1327.83 1035.68 1319.97 1035.69 C 1313.32 1035.29 1307.00 1032.34 1301.92 1028.11 C 1295.89 1023.12 1290.59 1017.31 1285.43 1011.45 C 1280.15 1019.04 1273.99 1026.25 1266.18 1031.33 C 1261.07 1034.56 1255.18 1037.00 1249.05 1036.88 C 1240.86 1037.05 1232.77 1032.34 1228.86 1025.15 C 1225.04 1018.43 1224.45 1010.32 1226.02 1002.86 C 1227.85 993.15 1231.92 984.06 1236.18 975.22 C 1244.35 958.07 1253.97 941.68 1263.02 925.00 C 1267.56 917.58 1273.32 909.98 1281.91 907.13 Z" />
<path fill="#ededed" stroke="#ededed" stroke-width="0.09375" opacity="1.00" d=" M 1288.33 926.56 C 1291.85 925.41 1295.36 927.70 1297.42 930.44 C 1309.12 944.94 1318.92 961.09 1325.65 978.50 C 1329.62 989.22 1332.78 1000.60 1331.97 1012.14 C 1331.82 1015.74 1328.99 1019.37 1325.23 1019.53 C 1321.20 1019.89 1317.68 1016.05 1317.95 1012.11 C 1318.57 1001.48 1315.41 991.10 1311.49 981.36 C 1305.43 966.75 1297.15 953.10 1287.25 940.79 C 1285.69 938.73 1283.76 936.66 1283.53 933.97 C 1283.02 930.76 1285.25 927.45 1288.33 926.56 Z" />
<path fill="#464b4b" stroke="#464b4b" stroke-width="0.09375" opacity="1.00" d=" M 753.86 999.79 C 761.40 997.62 769.34 998.46 777.00 999.50 C 796.60 1001.95 816.36 998.91 836.01 1000.42 C 839.63 1000.90 843.69 1000.92 846.69 1003.31 C 848.86 1005.89 847.96 1009.54 847.58 1012.59 C 845.76 1021.62 844.09 1030.93 845.77 1040.14 C 847.59 1055.04 856.23 1068.02 866.28 1078.75 C 879.14 1092.34 894.70 1103.19 911.27 1111.78 C 925.71 1118.95 941.60 1125.37 958.06 1123.54 C 962.86 1123.00 970.12 1124.98 969.97 1130.94 C 969.62 1138.48 966.87 1145.75 963.50 1152.44 C 950.66 1175.94 940.02 1200.83 934.04 1226.99 C 924.84 1267.44 925.56 1310.05 935.79 1350.23 C 940.26 1367.36 946.57 1384.43 957.49 1398.56 C 967.43 1411.50 982.10 1420.50 997.95 1424.15 C 1016.71 1428.70 1036.28 1426.48 1054.97 1422.67 C 1066.06 1420.49 1076.81 1416.73 1088.03 1415.13 C 1100.57 1413.01 1113.36 1411.99 1126.07 1413.01 C 1140.70 1414.37 1154.75 1420.60 1165.80 1430.25 C 1178.67 1441.57 1188.61 1456.04 1195.15 1471.85 C 1202.77 1489.52 1205.63 1508.82 1206.48 1527.92 C 1207.77 1541.27 1206.03 1554.63 1206.04 1567.99 C 1202.70 1628.53 1196.01 1688.85 1188.92 1749.06 C 1183.49 1794.43 1177.93 1839.79 1171.84 1885.09 C 1166.70 1923.42 1162.01 1961.82 1155.81 2000.00 L 775.73 2000.00 C 775.65 1981.00 776.60 1962.02 776.75 1943.02 C 776.79 1916.33 778.05 1889.67 777.89 1862.98 C 778.52 1841.32 778.85 1819.66 778.91 1798.00 C 779.59 1782.67 779.83 1767.33 779.92 1751.99 C 780.41 1740.33 780.77 1728.68 780.83 1717.01 C 780.78 1704.67 781.71 1692.35 781.75 1680.02 C 781.77 1660.03 783.03 1640.06 782.89 1620.07 C 783.51 1603.39 783.88 1586.70 783.88 1570.00 C 785.27 1522.04 784.91 1474.05 784.79 1426.07 C 784.33 1400.01 783.31 1373.96 781.68 1347.95 C 778.24 1298.43 771.74 1249.20 765.84 1199.94 C 759.64 1149.55 752.46 1099.29 745.80 1048.96 C 744.23 1035.71 740.86 1022.02 744.79 1008.85 C 745.96 1004.50 749.58 1001.08 753.86 999.79 Z" />
<path fill="#830030" stroke="#830030" stroke-width="0.09375" opacity="1.00" d=" M 1046.20 1094.27 C 1059.55 1090.91 1073.23 1088.65 1087.00 1088.17 C 1090.74 1088.60 1095.68 1088.62 1097.55 1092.60 C 1101.67 1100.81 1102.41 1110.14 1103.89 1119.08 C 1106.63 1135.96 1109.23 1153.11 1115.88 1168.99 C 1107.27 1164.24 1096.97 1161.78 1087.27 1164.22 C 1078.55 1165.99 1070.67 1171.41 1065.78 1178.80 C 1060.63 1186.83 1061.24 1197.13 1064.08 1205.87 C 1066.51 1213.32 1069.27 1221.00 1068.36 1228.97 C 1067.94 1234.34 1065.10 1239.64 1060.45 1242.50 C 1052.71 1247.46 1041.15 1245.67 1035.82 1237.99 C 1032.01 1232.84 1032.23 1225.88 1033.91 1219.99 C 1037.70 1208.18 1045.46 1197.58 1046.37 1184.92 C 1046.89 1176.15 1043.57 1166.99 1036.91 1161.13 C 1029.83 1154.88 1020.38 1151.81 1011.06 1151.36 C 1000.33 1151.16 989.82 1154.40 980.25 1159.05 C 989.51 1142.83 1000.07 1127.32 1012.07 1113.00 C 1020.61 1102.67 1033.49 1097.36 1046.20 1094.27 Z" />
<path fill="#830030" stroke="#830030" stroke-width="0.09375" opacity="1.00" d=" M 1143.96 1199.01 C 1147.64 1195.40 1153.26 1195.79 1158.00 1196.24 C 1167.99 1197.66 1178.69 1196.67 1188.01 1201.20 C 1187.63 1209.76 1184.98 1218.00 1183.46 1226.40 C 1179.80 1243.95 1178.43 1261.97 1179.57 1279.87 C 1179.71 1282.97 1180.51 1286.20 1179.30 1289.19 C 1173.36 1288.69 1167.86 1286.28 1162.17 1284.78 C 1157.80 1283.39 1153.21 1282.71 1148.97 1280.95 C 1147.00 1280.15 1146.56 1277.84 1146.09 1276.03 C 1143.56 1266.16 1146.21 1256.04 1145.87 1246.04 C 1146.18 1234.96 1145.74 1223.78 1142.89 1213.02 C 1141.85 1208.49 1140.46 1202.82 1143.96 1199.01 Z" />
<path fill="#464b4b" stroke="#464b4b" stroke-width="0.09375" opacity="1.00" d=" M 1211.44 1203.37 C 1214.68 1202.65 1217.59 1205.14 1220.03 1207.00 C 1223.14 1209.65 1227.38 1210.96 1229.85 1214.36 C 1231.14 1218.97 1229.27 1223.62 1228.07 1228.05 C 1223.11 1245.92 1222.66 1265.24 1227.84 1283.12 C 1228.09 1284.42 1228.28 1286.09 1226.95 1286.92 C 1224.02 1289.40 1220.19 1290.31 1216.73 1291.78 C 1212.61 1293.27 1208.63 1295.56 1204.17 1295.72 C 1199.86 1294.18 1199.15 1288.79 1198.35 1284.89 C 1195.76 1259.35 1198.74 1233.28 1206.75 1208.90 C 1207.47 1206.50 1208.94 1204.18 1211.44 1203.37 Z" />
<path fill="#ff002c" stroke="#ff002c" stroke-width="0.09375" opacity="1.00" d=" M 1050.57 1310.51 C 1083.87 1296.85 1121.64 1293.08 1156.58 1302.44 C 1172.94 1306.77 1188.32 1314.25 1202.53 1323.37 C 1219.08 1334.04 1234.30 1346.82 1247.38 1361.56 C 1270.47 1387.47 1286.64 1419.01 1296.58 1452.14 C 1309.31 1494.03 1310.22 1538.39 1307.86 1581.78 C 1307.59 1587.58 1305.94 1593.89 1308.65 1599.36 C 1311.71 1604.75 1320.31 1604.71 1323.36 1599.32 C 1326.08 1593.61 1325.50 1587.07 1326.01 1580.93 C 1327.19 1567.98 1326.82 1554.96 1326.90 1541.97 C 1327.18 1499.55 1319.90 1456.80 1303.17 1417.68 C 1290.55 1387.65 1272.24 1359.90 1248.84 1337.18 C 1244.95 1333.34 1240.83 1329.57 1238.15 1324.74 C 1235.97 1320.97 1236.60 1315.85 1239.77 1312.83 C 1245.70 1306.88 1254.13 1304.30 1262.26 1303.14 C 1275.31 1301.47 1288.31 1304.97 1300.43 1309.55 C 1323.07 1318.53 1342.33 1334.77 1357.02 1354.02 C 1377.67 1381.36 1390.59 1413.84 1398.53 1446.99 C 1404.68 1472.52 1406.74 1498.82 1407.14 1525.01 C 1406.64 1572.41 1400.47 1619.55 1392.59 1666.23 C 1385.35 1709.40 1375.68 1752.22 1371.55 1795.86 C 1368.02 1834.22 1368.07 1873.00 1372.87 1911.26 C 1376.66 1941.30 1382.83 1971.09 1391.88 2000.00 L 1181.03 2000.00 C 1183.94 1981.00 1186.14 1961.89 1188.40 1942.80 C 1192.45 1907.17 1197.04 1871.60 1201.48 1836.01 C 1206.62 1794.39 1211.42 1752.72 1215.76 1711.01 C 1220.84 1659.79 1226.22 1608.49 1226.33 1556.97 C 1225.94 1519.85 1222.37 1481.86 1207.59 1447.41 C 1199.82 1429.77 1188.90 1413.37 1174.88 1400.08 C 1163.65 1389.42 1150.40 1381.02 1136.28 1374.74 C 1119.86 1367.27 1101.98 1363.81 1084.15 1361.88 C 1074.79 1360.96 1065.40 1359.75 1056.00 1360.32 C 1052.33 1360.50 1048.80 1362.78 1047.56 1366.30 C 1045.81 1369.37 1047.49 1373.02 1049.62 1375.44 C 1052.48 1377.78 1056.33 1378.53 1059.97 1378.47 C 1068.55 1378.73 1077.38 1378.69 1085.60 1381.49 C 1088.91 1382.70 1092.90 1385.61 1091.87 1389.66 C 1090.81 1391.93 1088.47 1393.18 1086.33 1394.28 C 1074.20 1399.81 1061.20 1403.10 1048.15 1405.61 C 1039.21 1407.25 1030.15 1408.49 1021.04 1408.38 C 1009.95 1408.47 998.27 1407.23 988.67 1401.25 C 983.41 1398.08 978.44 1394.12 975.20 1388.83 C 972.13 1383.98 971.95 1377.78 973.44 1372.38 C 976.70 1362.93 984.14 1355.91 991.12 1349.12 C 1008.00 1332.31 1028.51 1319.40 1050.57 1310.51 Z" />
</svg>
