<?xml version="1.0" encoding="UTF-8" ?>
<!DOCTYPE svg PUBLIC "-//W3C//DTD SVG 1.1//EN" "http://www.w3.org/Graphics/SVG/1.1/DTD/svg11.dtd">
<svg width="100%" height="100%" viewBox="0 0 2000 2000" version="1.1" xmlns="http://www.w3.org/2000/svg">
<path fill="#ff5400" stroke="#ff5400" stroke-width="0.09375" opacity="1.00" d=" M 0.00 0.00 L 2000.00 0.00 L 2000.00 2000.00 L 1497.28 2000.00 C 1494.09 1967.58 1491.03 1935.14 1488.21 1902.69 C 1486.28 1881.84 1484.62 1860.96 1483.64 1840.05 C 1483.49 1827.33 1482.32 1814.67 1482.35 1801.96 C 1481.28 1791.99 1481.90 1781.94 1480.85 1771.98 C 1480.37 1765.64 1480.75 1759.26 1480.11 1752.93 C 1479.25 1745.24 1479.86 1737.48 1478.91 1729.81 C 1477.87 1706.86 1476.78 1683.92 1475.58 1660.99 C 1475.62 1651.97 1474.31 1643.02 1474.44 1634.00 C 1473.76 1626.31 1473.51 1618.60 1473.33 1610.89 C 1472.22 1600.96 1472.84 1590.94 1471.76 1581.02 C 1471.59 1566.32 1470.33 1551.68 1470.36 1536.98 C 1469.30 1525.33 1469.73 1513.63 1469.27 1501.95 C 1467.97 1487.02 1469.09 1471.98 1467.79 1457.05 C 1467.35 1442.06 1467.87 1427.04 1466.74 1412.09 C 1466.59 1399.40 1466.55 1386.70 1466.27 1374.02 C 1465.30 1362.39 1465.78 1350.71 1465.47 1339.07 C 1465.59 1328.03 1464.36 1317.04 1464.61 1306.01 C 1464.76 1290.97 1463.46 1275.98 1463.52 1260.95 C 1463.65 1249.90 1462.37 1238.90 1462.59 1227.85 C 1462.69 1213.89 1461.41 1199.99 1461.54 1186.03 C 1461.70 1174.87 1460.42 1163.77 1460.60 1152.62 C 1460.43 1143.75 1460.54 1134.88 1459.76 1126.04 C 1459.55 1112.71 1459.54 1099.37 1459.26 1086.03 C 1458.37 1075.70 1458.77 1065.33 1458.59 1054.97 C 1458.23 1009.31 1458.40 963.64 1458.27 917.97 C 1458.58 907.97 1457.48 898.00 1457.72 888.01 C 1457.78 862.00 1457.15 836.00 1457.14 810.00 C 1458.58 795.66 1456.91 780.76 1461.98 766.98 C 1466.85 755.06 1477.51 747.12 1485.14 737.10 C 1491.51 729.04 1496.04 719.59 1498.55 709.64 C 1501.12 699.66 1501.29 689.30 1501.75 679.07 C 1501.70 650.93 1499.77 622.80 1495.89 594.93 C 1493.71 578.79 1490.98 562.65 1485.99 547.11 C 1483.06 538.01 1479.78 528.76 1473.87 521.12 C 1468.02 513.24 1459.89 507.47 1451.55 502.50 C 1447.77 500.33 1444.68 497.00 1443.20 492.87 C 1440.86 486.51 1438.45 480.08 1434.41 474.57 C 1426.54 463.52 1413.83 457.48 1401.75 452.18 C 1382.93 444.22 1363.02 439.24 1343.14 434.74 C 1298.58 424.64 1253.49 417.01 1208.25 410.74 C 1152.09 403.03 1095.53 398.92 1039.01 395.15 C 966.36 390.74 893.72 386.34 820.99 383.63 C 810.35 382.85 799.68 383.21 789.03 382.93 C 769.85 382.60 750.56 383.07 731.66 386.66 C 697.04 392.94 664.02 405.93 632.70 421.73 C 612.43 431.94 592.68 443.22 573.83 455.87 C 560.77 464.83 547.92 474.65 538.48 487.53 C 528.77 500.68 524.18 516.92 522.87 533.05 C 521.63 542.43 523.31 553.11 517.10 561.08 C 506.65 573.77 490.81 580.69 480.89 593.91 C 475.01 601.24 472.21 610.67 472.23 620.00 C 472.15 625.66 472.60 631.33 472.23 636.99 C 471.98 641.94 468.09 645.59 464.57 648.62 C 453.72 657.42 440.44 663.38 431.59 674.51 C 422.64 685.24 418.08 698.94 416.62 712.69 C 412.93 745.67 416.62 778.82 418.60 811.78 C 421.57 855.48 423.83 899.21 425.60 942.98 C 426.43 952.97 425.90 963.03 426.81 973.03 C 427.42 987.37 427.28 1001.98 431.02 1015.96 C 433.43 1025.22 438.85 1033.85 446.95 1039.14 C 460.76 1048.44 477.74 1050.86 494.00 1051.98 C 502.11 1052.40 510.88 1055.59 514.90 1063.15 C 520.18 1073.23 521.25 1084.85 522.53 1095.99 C 523.62 1103.94 523.03 1111.99 523.95 1119.96 C 524.11 1149.29 524.23 1178.62 524.08 1207.96 C 524.20 1227.73 523.35 1247.50 523.32 1267.27 C 522.94 1293.19 523.45 1319.12 522.54 1345.03 C 521.91 1367.00 522.46 1388.99 521.51 1410.96 C 521.06 1426.34 521.20 1441.72 520.95 1457.11 C 520.00 1478.42 520.26 1499.75 519.94 1521.07 C 518.80 1543.70 519.52 1566.38 518.52 1589.01 C 518.21 1600.34 518.13 1611.68 518.08 1623.02 C 518.17 1634.03 517.36 1645.01 517.29 1656.02 C 516.97 1669.32 517.34 1682.63 516.64 1695.92 C 516.05 1709.87 516.30 1723.84 515.87 1737.80 C 515.01 1750.17 515.33 1762.57 514.84 1774.96 C 513.87 1786.91 514.48 1798.93 513.51 1810.89 C 511.95 1859.30 508.93 1907.64 506.13 1955.99 C 505.16 1970.66 504.29 1985.34 503.04 2000.00 L 0.00 2000.00 L 0.00 0.00 Z" />
<path fill="#000000" stroke="#000000" stroke-width="0.09375" opacity="1.00" d=" M 731.66 386.66 C 750.56 383.07 769.85 382.60 789.03 382.93 C 799.68 383.21 810.35 382.85 820.99 383.63 C 893.72 386.34 966.36 390.74 1039.01 395.15 C 1095.53 398.92 1152.09 403.03 1208.25 410.74 C 1253.49 417.01 1298.58 424.64 1343.14 434.74 C 1363.02 439.24 1382.93 444.22 1401.75 452.18 C 1413.83 457.48 1426.54 463.52 1434.41 474.57 C 1438.45 480.08 1440.86 486.51 1443.20 492.87 C 1444.68 497.00 1447.77 500.33 1451.55 502.50 C 1459.89 507.47 1468.02 513.24 1473.87 521.12 C 1479.78 528.76 1483.06 538.01 1485.99 547.11 C 1490.98 562.65 1493.71 578.79 1495.89 594.93 C 1499.77 622.80 1501.70 650.93 1501.75 679.07 C 1501.29 689.30 1501.12 699.66 1498.55 709.64 C 1496.04 719.59 1491.51 729.04 1485.14 737.10 C 1477.51 747.12 1466.85 755.06 1461.98 766.98 C 1456.91 780.76 1458.58 795.66 1457.14 810.00 C 1457.15 836.00 1457.78 862.00 1457.72 888.01 C 1457.48 898.00 1458.58 907.97 1458.27 917.97 C 1458.40 963.64 1458.23 1009.31 1458.59 1054.97 C 1458.77 1065.33 1458.37 1075.70 1459.26 1086.03 C 1459.54 1099.37 1459.55 1112.71 1459.76 1126.04 C 1460.54 1134.88 1460.43 1143.75 1460.60 1152.62 C 1460.42 1163.77 1461.70 1174.87 1461.54 1186.03 C 1461.41 1199.99 1462.69 1213.89 1462.59 1227.85 C 1462.37 1238.90 1463.65 1249.90 1463.52 1260.95 C 1463.46 1275.98 1464.76 1290.97 1464.61 1306.01 C 1464.36 1317.04 1465.59 1328.03 1465.47 1339.07 C 1465.78 1350.71 1465.30 1362.39 1466.27 1374.02 C 1466.55 1386.70 1466.59 1399.40 1466.74 1412.09 C 1467.87 1427.04 1467.35 1442.06 1467.79 1457.05 C 1469.09 1471.98 1467.97 1487.02 1469.27 1501.95 C 1469.73 1513.63 1469.30 1525.33 1470.36 1536.98 C 1470.33 1551.68 1471.59 1566.32 1471.76 1581.02 C 1472.84 1590.94 1472.22 1600.96 1473.33 1610.89 C 1473.51 1618.60 1473.76 1626.31 1474.44 1634.00 C 1474.31 1643.02 1475.62 1651.97 1475.58 1660.99 C 1476.78 1683.92 1477.87 1706.86 1478.91 1729.81 C 1479.86 1737.48 1479.25 1745.24 1480.11 1752.93 C 1480.75 1759.26 1480.37 1765.64 1480.85 1771.98 C 1481.90 1781.94 1481.28 1791.99 1482.35 1801.96 C 1482.32 1814.67 1483.49 1827.33 1483.64 1840.05 C 1484.62 1860.96 1486.28 1881.84 1488.21 1902.69 C 1491.03 1935.14 1494.09 1967.58 1497.28 2000.00 L 1459.19 2000.00 C 1456.80 1965.38 1455.21 1930.72 1453.16 1896.08 C 1449.12 1820.33 1444.83 1744.60 1441.75 1668.81 C 1440.91 1658.90 1441.28 1648.94 1440.35 1639.04 C 1440.22 1625.34 1439.02 1611.69 1438.98 1597.99 C 1438.10 1587.72 1438.27 1577.40 1437.82 1567.11 C 1436.85 1555.77 1437.44 1544.38 1436.57 1533.04 C 1435.90 1522.39 1436.39 1511.70 1435.62 1501.06 C 1434.87 1489.07 1435.42 1477.04 1434.60 1465.06 C 1433.88 1452.40 1434.43 1439.70 1433.61 1427.05 C 1432.87 1413.41 1433.44 1399.74 1432.63 1386.10 C 1432.04 1373.72 1432.22 1361.33 1431.96 1348.95 C 1431.39 1337.98 1431.17 1327.00 1431.11 1316.03 C 1431.21 1301.00 1430.07 1286.00 1430.15 1270.97 C 1430.29 1251.98 1429.06 1233.02 1429.14 1214.03 C 1429.24 1191.33 1428.11 1168.66 1428.18 1145.96 C 1427.87 1117.91 1428.54 1089.84 1427.06 1061.82 C 1426.23 1053.98 1425.55 1045.23 1419.87 1039.20 C 1415.42 1033.44 1407.69 1032.47 1401.03 1031.18 C 1376.80 1027.74 1352.37 1025.92 1327.98 1023.97 C 1275.02 1020.04 1222.03 1016.44 1168.96 1014.54 C 1159.32 1013.64 1149.63 1014.02 1139.97 1013.61 C 1124.01 1012.93 1107.88 1012.04 1092.06 1014.79 C 1073.03 1017.77 1055.51 1026.22 1036.95 1030.96 C 1023.92 1034.43 1010.51 1036.61 997.02 1036.71 C 986.17 1036.41 975.33 1035.06 964.85 1032.18 C 953.83 1029.33 943.29 1024.95 932.42 1021.63 C 921.26 1018.29 909.68 1016.33 898.06 1015.84 C 887.39 1015.95 876.73 1015.85 866.07 1016.12 C 853.75 1017.14 841.37 1016.56 829.05 1017.69 C 817.69 1017.76 806.38 1018.88 795.03 1019.10 C 783.48 1020.20 771.46 1020.09 760.57 1024.60 C 754.48 1027.03 750.12 1032.68 748.89 1039.07 C 746.44 1051.56 747.03 1064.35 746.98 1077.00 C 746.90 1085.33 747.69 1093.63 747.74 1101.95 C 748.11 1115.96 747.64 1129.98 748.39 1143.98 C 749.32 1167.63 748.47 1191.32 749.46 1214.96 C 750.00 1237.98 749.91 1261.00 749.99 1284.02 C 751.15 1330.67 750.81 1377.34 750.91 1424.01 C 750.88 1452.98 750.93 1481.96 750.59 1510.93 C 749.48 1544.28 750.49 1577.66 749.02 1611.00 C 748.87 1625.68 749.00 1640.37 748.53 1655.06 C 747.41 1674.85 748.39 1694.70 747.14 1714.50 C 746.72 1728.32 747.11 1742.17 746.44 1755.99 C 745.52 1770.66 746.25 1785.37 745.46 1800.04 C 744.54 1812.70 745.24 1825.40 744.44 1838.07 C 743.53 1850.04 744.24 1862.06 743.42 1874.04 C 742.55 1885.37 743.22 1896.75 742.46 1908.09 C 741.55 1919.39 742.22 1930.75 741.46 1942.07 C 740.52 1953.72 741.27 1965.43 740.36 1977.09 C 739.74 1984.71 740.02 1992.36 739.81 2000.00 L 721.21 2000.00 C 721.92 1986.65 722.13 1973.28 722.45 1959.92 C 723.40 1947.12 722.88 1934.28 723.69 1921.49 C 724.39 1910.64 723.92 1899.76 724.58 1888.92 C 725.41 1876.96 724.90 1864.98 725.62 1853.03 C 726.39 1841.33 725.94 1829.61 726.55 1817.92 C 727.45 1803.95 726.92 1789.95 727.57 1775.98 C 728.40 1761.67 727.93 1747.32 728.45 1733.00 C 729.51 1711.34 728.86 1689.63 730.02 1667.98 C 729.87 1641.29 731.27 1614.63 731.17 1587.95 C 731.15 1566.96 732.19 1545.99 732.08 1525.00 C 732.25 1475.00 732.58 1425.00 732.34 1375.00 C 732.20 1343.67 732.12 1312.34 732.02 1281.01 C 731.47 1260.02 731.18 1239.02 731.11 1218.02 C 731.23 1194.35 730.00 1170.69 730.11 1147.02 C 730.28 1132.66 729.28 1118.33 729.21 1103.98 C 728.98 1092.79 729.35 1081.59 728.43 1070.44 C 727.87 1060.45 727.75 1050.18 724.35 1040.66 C 723.02 1036.73 719.70 1032.71 715.12 1033.25 C 707.08 1034.15 699.48 1037.17 691.95 1039.96 C 671.91 1048.05 652.03 1056.53 632.29 1065.31 C 616.98 1072.18 601.52 1078.76 586.65 1086.55 C 578.49 1091.04 570.26 1095.92 564.04 1102.98 C 557.36 1110.62 556.77 1121.33 556.00 1130.97 C 555.90 1178.33 555.95 1225.70 554.97 1273.05 C 554.94 1300.04 554.92 1327.02 554.69 1354.01 C 554.59 1374.35 553.76 1394.68 553.96 1415.03 C 553.87 1441.02 553.94 1467.01 553.03 1492.99 C 552.82 1516.64 553.14 1540.31 552.04 1563.94 C 551.82 1579.30 552.07 1594.68 551.41 1610.03 C 550.72 1620.67 551.05 1631.34 550.83 1642.00 C 550.80 1653.00 549.70 1663.97 549.93 1674.98 C 550.10 1688.33 548.73 1701.64 548.91 1715.00 C 549.02 1726.35 547.72 1737.67 547.91 1749.03 C 548.02 1760.03 546.70 1770.98 546.90 1781.99 C 547.01 1790.35 546.02 1798.67 545.94 1807.03 C 546.05 1820.38 544.62 1833.67 544.78 1847.02 C 543.72 1859.97 544.19 1872.98 543.11 1885.94 C 542.77 1892.31 543.04 1898.71 542.59 1905.09 C 541.62 1916.35 542.11 1927.68 541.05 1938.94 C 541.10 1951.31 539.76 1963.62 539.79 1975.99 C 539.23 1983.98 538.77 1991.98 538.81 2000.00 L 503.04 2000.00 C 504.29 1985.34 505.16 1970.66 506.13 1955.99 C 508.93 1907.64 511.95 1859.30 513.51 1810.89 C 514.48 1798.93 513.87 1786.91 514.84 1774.96 C 515.33 1762.57 515.01 1750.17 515.87 1737.80 C 516.30 1723.84 516.05 1709.87 516.64 1695.92 C 517.34 1682.63 516.97 1669.32 517.29 1656.02 C 517.36 1645.01 518.17 1634.03 518.08 1623.02 C 518.13 1611.68 518.21 1600.34 518.52 1589.01 C 519.52 1566.38 518.80 1543.70 519.94 1521.07 C 520.26 1499.75 520.00 1478.42 520.95 1457.11 C 521.20 1441.72 521.06 1426.34 521.51 1410.96 C 522.46 1388.99 521.91 1367.00 522.54 1345.03 C 523.45 1319.12 522.94 1293.19 523.32 1267.27 C 523.35 1247.50 524.20 1227.73 524.08 1207.96 C 524.23 1178.62 524.11 1149.29 523.95 1119.96 C 523.03 1111.99 523.62 1103.94 522.53 1095.99 C 521.25 1084.85 520.18 1073.23 514.90 1063.15 C 510.88 1055.59 502.11 1052.40 494.00 1051.98 C 477.74 1050.86 460.76 1048.44 446.95 1039.14 C 438.85 1033.85 433.43 1025.22 431.02 1015.96 C 427.28 1001.98 427.42 987.37 426.81 973.03 C 425.90 963.03 426.43 952.97 425.60 942.98 C 423.83 899.21 421.57 855.48 418.60 811.78 C 416.62 778.82 412.93 745.67 416.62 712.69 C 418.08 698.94 422.64 685.24 431.59 674.51 C 440.44 663.38 453.72 657.42 464.57 648.62 C 468.09 645.59 471.98 641.94 472.23 636.99 C 472.60 631.33 472.15 625.66 472.23 620.00 C 472.21 610.67 475.01 601.24 480.89 593.91 C 490.81 580.69 506.65 573.77 517.10 561.08 C 523.31 553.11 521.63 542.43 522.87 533.05 C 524.18 516.92 528.77 500.68 538.48 487.53 C 547.92 474.65 560.77 464.83 573.83 455.87 C 592.68 443.22 612.43 431.94 632.70 421.73 C 664.02 405.93 697.04 392.94 731.66 386.66 Z" />
<path fill="#00a28a" stroke="#00a28a" stroke-width="0.09375" opacity="1.00" d=" M 758.44 412.61 C 772.93 411.93 787.47 412.81 801.98 412.76 C 815.32 413.04 828.67 412.58 841.99 413.52 C 852.31 414.10 862.66 413.57 872.96 414.48 C 881.61 415.11 890.31 414.60 898.95 415.41 C 907.59 416.13 916.29 415.60 924.93 416.56 C 999.40 419.48 1073.80 424.55 1147.92 432.66 C 1192.47 437.48 1236.92 443.38 1281.05 451.18 C 1306.53 455.62 1331.92 460.60 1357.02 466.82 C 1371.94 470.64 1387.04 474.40 1400.96 481.17 C 1405.11 483.37 1409.62 485.63 1412.28 489.68 C 1414.30 493.44 1415.45 497.80 1415.05 502.09 C 1414.83 504.92 1411.47 506.00 1409.07 505.79 C 1367.71 497.57 1326.21 489.85 1284.38 484.39 C 1196.13 472.76 1107.52 462.96 1018.56 459.78 C 1009.70 458.90 1000.79 459.25 991.92 458.90 C 974.62 457.58 957.26 458.49 939.95 457.58 C 909.65 457.10 879.33 456.91 849.05 458.03 C 836.37 458.08 823.69 458.07 811.04 458.96 C 800.67 459.06 790.30 459.22 779.95 460.02 C 769.61 459.84 759.34 461.17 749.01 461.19 C 744.53 461.29 739.81 462.27 735.54 460.46 C 733.83 459.67 732.78 457.86 732.83 456.01 C 731.79 444.80 735.73 433.75 741.16 424.12 C 744.64 417.76 751.31 413.53 758.44 412.61 Z" />
<path fill="#014551" stroke="#014551" stroke-width="0.09375" opacity="1.00" d=" M 707.25 419.30 C 712.23 417.43 717.89 421.72 717.42 427.00 C 716.60 433.74 713.76 440.02 712.55 446.69 C 711.32 451.87 710.86 457.94 706.62 461.71 C 702.29 465.25 696.56 466.00 691.33 467.42 C 677.56 471.10 665.47 478.99 653.60 486.59 C 628.10 503.40 603.40 521.41 577.34 537.35 C 572.57 539.93 567.62 543.53 561.95 543.02 C 557.50 542.03 555.86 537.01 555.08 533.07 C 553.90 522.64 556.64 511.54 563.50 503.45 C 572.52 492.48 585.05 485.31 596.93 477.89 C 626.18 460.42 655.80 443.52 686.31 428.34 C 693.19 425.11 699.97 421.54 707.25 419.30 Z" />
<path fill="#ededed" stroke="#ededed" stroke-width="0.09375" opacity="1.00" d=" M 797.04 477.73 C 814.32 476.52 831.66 477.13 848.95 476.02 C 883.95 475.71 918.95 475.79 953.95 476.00 C 964.27 476.46 974.60 476.86 984.94 476.91 C 995.63 476.75 1006.27 478.10 1016.97 477.92 C 1040.29 479.07 1063.62 480.08 1086.90 481.86 C 1132.71 484.97 1178.40 489.89 1224.02 495.20 C 1268.42 500.61 1312.85 506.13 1356.83 514.39 C 1381.10 519.00 1405.53 522.99 1429.41 529.37 C 1435.63 531.33 1442.43 533.10 1447.17 537.86 C 1450.90 542.92 1451.89 549.36 1453.75 555.24 C 1461.88 586.96 1469.00 619.20 1470.48 652.01 C 1471.49 661.45 1471.45 671.54 1467.19 680.23 C 1465.04 684.89 1459.22 684.74 1454.94 683.96 C 1447.88 682.36 1440.99 680.10 1433.95 678.44 C 1411.43 672.95 1388.49 669.26 1365.52 666.32 C 1352.65 664.01 1340.56 658.80 1328.18 654.79 C 1308.15 648.11 1286.10 646.73 1265.68 652.41 C 1255.62 655.45 1245.60 659.40 1234.94 659.44 C 1227.97 660.89 1220.98 658.97 1213.98 659.05 C 1207.58 659.15 1200.88 658.23 1195.41 654.69 C 1188.74 650.61 1184.38 643.71 1181.68 636.54 C 1173.07 616.93 1162.23 598.12 1148.07 581.97 C 1126.02 556.42 1094.96 537.92 1061.12 534.20 C 1034.87 531.04 1008.13 537.18 984.54 548.69 C 958.35 561.48 935.71 580.77 917.02 602.99 C 909.49 611.70 903.42 622.32 892.71 627.61 C 883.14 632.00 872.27 632.35 861.91 631.88 C 839.63 630.92 817.34 632.06 795.06 632.19 C 789.18 632.46 783.21 632.43 777.45 633.69 C 773.55 634.54 771.54 638.35 770.77 641.95 C 771.17 643.91 772.06 645.74 772.80 647.61 C 765.66 648.16 758.49 647.70 751.39 648.65 C 735.18 649.51 718.71 650.17 703.04 654.82 C 688.84 659.02 676.09 666.79 663.56 674.47 C 653.07 681.00 642.67 687.69 632.45 694.63 C 632.04 694.19 631.21 693.29 630.80 692.84 C 629.01 690.36 625.95 689.00 622.93 689.07 C 619.40 689.41 616.45 691.57 613.59 693.47 C 595.47 705.40 577.40 717.42 559.20 729.24 C 552.23 733.47 545.22 738.48 536.96 739.64 C 530.86 740.17 526.29 735.31 523.57 730.44 C 516.40 717.98 513.28 703.76 509.89 689.93 C 506.09 673.93 502.62 657.84 500.28 641.55 C 499.36 633.58 498.02 625.45 499.59 617.47 C 501.16 608.15 509.87 602.87 516.91 597.77 C 551.12 575.34 586.12 554.12 619.98 531.16 C 635.80 520.59 651.27 509.50 667.28 499.22 C 676.33 493.55 685.53 487.67 695.98 484.96 C 708.09 481.99 720.62 481.25 733.03 480.61 C 741.31 479.58 749.69 480.08 757.98 479.09 C 771.02 478.94 784.00 477.68 797.04 477.73 Z" />
<path fill="#000000" stroke="#000000" stroke-width="0.09375" opacity="1.00" d=" M 697.40 504.96 C 698.08 500.17 701.65 495.13 706.96 495.29 C 712.77 495.43 716.61 501.69 715.69 507.08 C 714.84 512.67 714.84 518.34 714.09 523.94 C 713.16 551.03 712.32 578.37 716.73 605.23 C 717.52 610.47 718.54 615.68 719.55 620.89 C 720.43 624.73 719.17 629.38 715.64 631.48 C 714.15 632.25 712.56 632.78 711.01 633.38 C 708.64 632.43 705.83 631.94 704.18 629.83 C 702.37 627.22 701.51 624.10 700.97 621.02 C 698.69 608.76 696.56 596.43 695.92 583.96 C 694.63 571.67 695.22 559.28 695.09 546.95 C 694.93 532.91 696.10 518.92 697.40 504.96 Z" />
<path fill="#ededed" stroke="#ededed" stroke-width="0.09375" opacity="1.00" d=" M 1036.99 552.14 C 1058.57 550.27 1080.71 554.60 1099.64 565.26 C 1127.72 580.90 1148.45 607.41 1161.58 636.35 C 1180.57 677.26 1186.40 723.21 1184.17 767.95 C 1181.86 811.39 1171.37 854.47 1152.95 893.91 C 1139.43 922.64 1121.59 949.57 1098.82 971.81 C 1085.63 984.69 1070.71 995.93 1054.22 1004.24 C 1036.23 1013.27 1016.17 1018.70 995.97 1018.17 C 975.61 1018.15 955.46 1011.69 938.41 1000.65 C 913.92 984.78 895.78 960.61 883.56 934.39 C 872.60 910.90 865.98 885.53 862.73 859.86 C 860.96 847.65 860.71 835.32 860.01 823.02 C 860.21 791.00 864.16 758.93 872.80 728.05 C 886.30 679.79 910.10 633.49 946.10 598.15 C 970.66 574.06 1002.18 555.31 1036.99 552.14 Z" />
<path fill="#000000" stroke="#000000" stroke-width="0.09375" opacity="1.00" d=" M 1064.96 629.51 C 1081.19 625.42 1099.41 630.97 1110.61 643.43 C 1117.38 650.51 1121.15 659.76 1124.29 668.89 C 1139.68 713.36 1144.22 761.45 1138.17 808.07 C 1135.11 830.81 1129.76 853.34 1120.83 874.53 C 1116.70 884.42 1112.05 894.59 1103.79 901.77 C 1091.92 912.57 1074.29 916.82 1058.91 911.93 C 1055.02 910.91 1051.39 909.18 1047.89 907.26 C 1038.03 901.07 1030.27 891.39 1027.14 880.11 C 1022.50 865.32 1026.86 849.37 1034.17 836.28 C 1053.55 823.86 1074.13 813.29 1093.11 800.19 C 1097.15 797.37 1099.30 791.57 1097.06 786.99 C 1095.90 784.21 1093.33 782.46 1090.96 780.82 C 1080.64 773.89 1070.29 767.01 1059.98 760.06 C 1055.07 756.52 1049.69 753.62 1045.09 749.71 C 1043.59 736.03 1041.42 722.37 1037.46 709.16 C 1035.46 701.75 1032.24 694.74 1030.45 687.28 C 1028.38 678.95 1028.39 670.06 1030.95 661.84 C 1035.45 646.05 1048.92 633.17 1064.96 629.51 Z" />
<path fill="#959898" stroke="#959898" stroke-width="0.09375" opacity="1.00" d=" M 751.39 648.65 C 758.49 647.70 765.66 648.16 772.80 647.61 C 775.59 650.10 779.29 651.17 782.99 650.90 C 805.69 650.49 828.40 648.97 851.09 650.39 C 857.05 651.00 863.30 651.53 868.68 654.39 C 872.64 656.42 872.15 662.43 869.00 664.99 C 864.60 668.78 858.50 669.16 853.00 669.78 C 842.66 670.44 832.32 671.18 821.95 671.25 C 806.95 671.32 791.97 672.22 776.97 672.22 C 765.94 672.23 754.96 673.22 743.95 673.39 C 735.87 674.11 727.69 674.01 719.72 675.67 C 712.02 677.28 705.55 682.00 699.01 686.10 C 655.38 714.64 612.19 743.84 569.09 773.15 C 563.10 777.45 556.57 782.07 548.91 782.19 C 542.74 780.99 539.07 773.92 539.85 768.02 C 540.86 762.73 545.83 759.74 549.94 756.94 C 575.46 740.13 601.02 723.37 626.49 706.48 C 630.02 704.32 632.64 700.34 632.30 696.09 C 631.51 695.13 631.02 694.05 630.80 692.84 C 631.21 693.29 632.04 694.19 632.45 694.63 C 642.67 687.69 653.07 681.00 663.56 674.47 C 676.09 666.79 688.84 659.02 703.04 654.82 C 718.71 650.17 735.18 649.51 751.39 648.65 Z" />
<path fill="#ededed" stroke="#ededed" stroke-width="0.09375" opacity="1.00" d=" M 1284.17 668.23 C 1303.76 665.86 1323.91 670.81 1340.45 681.49 C 1366.53 697.75 1384.90 724.00 1396.88 751.88 C 1414.16 792.94 1418.75 839.02 1411.34 882.85 C 1409.88 891.21 1407.98 899.50 1405.52 907.63 C 1404.47 911.70 1399.82 913.50 1395.98 913.30 C 1391.10 913.64 1386.66 911.44 1382.20 909.86 C 1358.08 901.12 1332.65 896.44 1307.12 894.45 C 1280.31 892.97 1253.23 893.76 1226.85 899.19 C 1219.07 900.51 1211.19 903.71 1203.24 901.69 C 1198.06 900.06 1195.68 894.72 1193.86 890.08 C 1190.47 880.43 1189.60 870.15 1188.95 860.03 C 1189.52 852.63 1189.96 845.16 1191.92 837.96 C 1198.56 812.12 1202.02 785.54 1203.05 758.92 C 1204.09 749.52 1204.78 739.93 1208.11 730.98 C 1211.38 721.69 1217.09 713.56 1222.68 705.55 C 1237.73 686.30 1259.52 671.25 1284.17 668.23 Z" />
<path fill="#ededed" stroke="#ededed" stroke-width="0.09375" opacity="1.00" d=" M 479.23 674.13 C 485.15 672.01 488.14 678.85 489.37 683.40 C 494.94 705.18 500.32 727.05 507.40 748.41 C 510.95 758.91 505.95 770.80 497.31 777.23 C 490.98 782.32 486.52 789.61 484.72 797.52 C 482.20 808.16 483.24 819.17 483.14 830.00 C 484.14 854.04 485.61 878.06 486.50 902.11 C 487.49 912.41 486.87 922.78 487.90 933.09 C 488.11 945.12 489.21 957.17 488.29 969.20 C 487.59 977.63 481.85 984.43 476.09 990.12 C 472.72 993.19 468.84 996.50 464.01 996.46 C 460.75 996.36 458.66 993.33 457.61 990.57 C 455.55 983.90 455.84 976.84 455.17 969.96 C 453.67 942.59 450.97 915.34 449.65 887.98 C 448.65 880.38 449.08 872.69 448.06 865.10 C 448.04 856.03 446.76 847.04 446.75 837.97 C 445.72 829.37 446.09 820.68 445.05 812.08 C 445.16 802.69 443.78 793.37 443.88 783.98 C 443.91 778.29 443.12 772.65 442.97 766.97 C 442.97 746.94 441.33 726.85 443.49 706.88 C 444.27 700.96 445.15 694.14 450.25 690.26 C 459.28 683.89 468.57 677.44 479.23 674.13 Z" />
<path fill="#ff3cae" stroke="#ff3cae" stroke-width="0.09375" opacity="1.00" d=" M 1194.60 676.69 C 1204.38 676.57 1214.08 677.83 1223.85 677.95 C 1214.76 686.17 1206.82 695.62 1200.05 705.83 C 1198.72 696.03 1196.88 686.31 1194.60 676.69 Z" />
<path fill="#959898" stroke="#959898" stroke-width="0.09375" opacity="1.00" d=" M 1374.74 685.91 C 1397.71 689.57 1420.77 693.18 1443.13 699.76 C 1450.08 701.90 1457.20 703.88 1463.64 707.37 C 1465.80 708.64 1468.86 710.72 1467.65 713.67 C 1465.52 719.03 1461.16 723.10 1456.98 726.92 C 1453.02 730.55 1448.18 733.03 1443.09 734.63 C 1442.99 730.06 1443.17 725.49 1443.09 720.92 C 1442.93 716.39 1439.45 712.58 1435.14 711.51 C 1420.27 707.65 1404.98 705.72 1389.88 703.04 C 1384.86 697.33 1380.30 691.15 1374.74 685.91 Z" />
<path fill="#ff3cae" stroke="#ff3cae" stroke-width="0.09375" opacity="1.00" d=" M 775.53 690.81 C 794.99 689.41 814.53 690.14 834.03 689.97 C 840.55 690.56 847.46 689.74 853.61 692.45 C 858.90 695.48 860.29 702.56 858.93 708.12 C 856.43 720.19 852.65 731.95 850.15 744.02 C 845.10 767.65 841.98 791.80 842.06 815.99 C 841.25 860.80 849.61 906.28 869.47 946.66 C 874.62 957.11 880.74 967.06 887.49 976.56 C 889.58 979.83 892.20 983.78 890.81 987.84 C 888.82 991.49 884.30 992.47 880.67 993.74 C 866.43 997.43 851.57 997.11 837.08 998.98 C 829.08 999.05 821.06 999.08 813.09 999.83 C 807.25 1000.20 801.39 999.82 795.56 1000.48 C 786.03 1000.75 776.50 1000.53 766.97 1000.59 C 761.78 1000.27 755.83 1000.02 752.00 996.02 C 746.67 990.22 745.44 982.02 744.75 974.48 C 743.35 963.69 744.33 952.78 743.44 941.97 C 742.77 935.33 743.01 928.67 742.82 922.02 C 742.72 915.31 741.74 908.65 741.92 901.94 C 742.05 892.92 740.68 883.97 740.87 874.96 C 739.47 849.97 738.50 824.98 736.94 800.00 C 737.05 791.95 735.67 783.99 735.84 775.94 C 734.55 758.62 734.15 741.25 732.95 723.93 C 733.13 715.44 731.19 706.24 735.45 698.42 C 739.02 693.90 745.16 693.16 750.48 692.36 C 758.80 691.46 767.14 690.81 775.53 690.81 Z" />
<path fill="#801b74" stroke="#801b74" stroke-width="0.09375" opacity="1.00" d=" M 701.32 707.39 C 705.44 705.99 709.81 708.68 711.85 712.22 C 714.50 716.92 714.96 722.43 715.33 727.71 C 716.52 739.81 715.56 752.00 716.80 764.10 C 718.65 802.11 720.97 840.09 722.52 878.12 C 723.41 886.71 722.91 895.37 723.66 903.98 C 724.38 912.33 723.94 920.72 724.55 929.08 C 725.43 939.06 724.90 949.10 725.61 959.10 C 726.38 968.72 725.96 978.39 726.46 988.03 C 726.75 993.82 725.90 1000.27 721.36 1004.38 C 715.03 1010.07 706.74 1012.78 699.03 1016.05 C 662.63 1030.07 626.94 1045.89 591.72 1062.66 C 583.91 1066.07 576.14 1069.79 567.81 1071.77 C 563.62 1073.14 560.85 1068.73 559.51 1065.46 C 557.18 1054.48 558.04 1043.16 557.85 1032.02 C 557.86 1017.02 557.64 1002.02 557.77 987.02 C 557.90 982.65 556.75 978.36 556.97 973.99 C 557.24 941.30 556.58 908.63 556.05 875.95 C 555.91 869.62 555.84 863.27 556.71 856.99 C 556.81 841.25 556.39 825.19 560.81 809.92 C 563.62 800.47 571.10 793.40 579.11 788.14 C 613.78 764.43 648.61 740.95 683.61 717.74 C 689.34 714.04 694.66 709.35 701.32 707.39 Z" />
<path fill="#000000" stroke="#000000" stroke-width="0.09375" opacity="1.00" d=" M 1255.56 713.63 C 1261.83 709.62 1269.56 707.80 1276.96 708.99 C 1285.11 710.19 1292.46 715.09 1297.19 721.77 C 1301.08 728.05 1303.04 735.65 1301.90 743.02 C 1300.92 750.04 1297.16 756.20 1294.98 762.86 C 1294.61 764.37 1293.29 765.23 1291.98 765.84 C 1281.65 770.86 1271.45 776.13 1261.14 781.18 C 1258.18 782.40 1257.25 785.70 1257.88 788.62 C 1260.50 791.56 1264.39 792.58 1267.87 794.15 C 1275.14 797.30 1282.46 800.35 1289.73 803.51 C 1290.98 809.62 1293.14 815.66 1292.82 821.99 C 1292.49 833.83 1284.51 845.33 1273.19 849.14 C 1265.54 852.10 1256.74 851.50 1249.50 847.71 C 1241.32 843.66 1235.45 835.81 1233.19 827.03 C 1224.21 795.63 1229.48 761.66 1242.08 732.01 C 1244.93 724.89 1249.16 718.07 1255.56 713.63 Z" />
<path fill="#ff3cae" stroke="#ff3cae" stroke-width="0.09375" opacity="1.00" d=" M 1403.08 723.73 C 1410.29 724.99 1417.52 726.21 1424.65 727.88 C 1425.34 741.93 1425.18 756.02 1425.19 770.09 C 1424.71 770.29 1423.76 770.68 1423.29 770.88 C 1420.50 764.66 1418.99 757.95 1416.31 751.69 C 1412.56 742.07 1408.14 732.72 1403.08 723.73 Z" />
<path fill="#959898" stroke="#959898" stroke-width="0.09375" opacity="1.00" d=" M 515.25 791.29 C 519.35 790.50 523.08 793.49 525.61 796.43 C 533.20 805.44 535.69 817.48 536.51 828.94 C 537.62 836.25 537.02 843.65 537.92 850.98 C 537.81 883.33 538.25 915.67 538.11 948.02 C 537.80 954.29 538.49 960.91 535.82 966.79 C 533.87 970.68 529.00 971.67 525.04 971.94 C 519.78 972.12 513.80 971.98 509.61 968.36 C 505.79 963.83 507.18 957.46 506.82 952.02 C 505.76 913.99 503.68 875.99 501.95 837.99 C 502.16 826.03 500.62 813.74 504.21 802.12 C 505.83 796.97 510.05 792.78 515.25 791.29 Z" />
<path fill="#ff3cae" stroke="#ff3cae" stroke-width="0.09375" opacity="1.00" d=" M 1171.42 902.44 C 1173.30 901.19 1175.71 902.35 1176.95 903.99 C 1179.76 907.64 1180.83 912.21 1182.51 916.43 C 1191.74 940.54 1205.06 963.32 1223.01 981.99 C 1226.44 985.73 1230.76 988.76 1233.09 993.41 C 1232.60 994.48 1232.12 995.57 1231.68 996.68 C 1228.91 997.75 1225.98 998.41 1223.01 998.20 C 1216.35 997.90 1209.66 998.38 1203.02 997.64 C 1195.73 996.83 1188.38 997.39 1181.10 996.61 C 1172.45 995.79 1163.74 996.40 1155.10 995.54 C 1141.78 994.54 1128.36 995.81 1115.09 994.29 C 1112.23 994.35 1109.22 992.00 1109.92 988.93 C 1110.09 985.05 1113.72 982.69 1116.08 980.05 C 1135.48 960.05 1151.39 936.80 1164.11 912.05 C 1165.95 908.47 1167.72 904.47 1171.42 902.44 Z" />
<path fill="#00a28a" stroke="#00a28a" stroke-width="0.09375" opacity="1.00" d=" M 1272.17 912.19 C 1304.68 911.02 1337.57 914.68 1368.70 924.38 C 1374.33 926.22 1379.97 928.14 1385.40 930.55 C 1390.35 932.60 1392.54 939.14 1389.77 943.75 C 1382.36 958.46 1371.74 971.52 1358.98 981.93 C 1346.94 991.71 1332.48 998.81 1317.04 1000.98 C 1296.16 1004.42 1274.48 998.41 1256.98 986.89 C 1238.05 974.41 1222.66 956.67 1212.69 936.33 C 1211.40 932.55 1208.73 928.04 1211.18 924.22 C 1212.35 922.01 1214.65 920.68 1217.03 920.09 C 1235.04 915.37 1253.61 913.16 1272.17 912.19 Z" />
<path fill="#ff3cae" stroke="#ff3cae" stroke-width="0.09375" opacity="1.00" d=" M 1421.37 918.30 C 1423.68 916.51 1426.59 918.31 1426.41 921.11 C 1427.26 944.39 1427.09 967.71 1427.07 991.02 C 1426.83 997.83 1425.06 1006.07 1418.33 1009.36 C 1411.43 1012.56 1403.49 1012.45 1396.10 1011.46 C 1386.45 1010.61 1376.81 1009.66 1367.17 1008.78 C 1364.64 1008.27 1360.95 1007.25 1360.93 1004.10 C 1361.34 1002.35 1363.15 1001.47 1364.43 1000.39 C 1379.19 989.96 1391.39 976.19 1401.07 960.98 C 1408.80 948.60 1415.57 935.45 1419.52 921.35 C 1419.94 920.25 1420.20 918.86 1421.37 918.30 Z" />
<path fill="#959898" stroke="#959898" stroke-width="0.09375" opacity="1.00" d=" M 509.51 991.65 C 515.81 990.08 522.34 990.49 528.70 991.40 C 537.60 992.67 542.25 1003.89 538.71 1011.63 C 536.88 1015.42 532.92 1017.61 528.98 1018.60 C 522.42 1020.09 515.67 1020.56 508.96 1020.36 C 500.29 1020.20 490.88 1021.39 483.04 1016.86 C 480.96 1015.85 479.99 1013.34 480.53 1011.16 C 481.08 1007.25 484.01 1004.35 486.91 1001.98 C 493.44 996.73 501.40 993.50 509.51 991.65 Z" />
<path fill="#00a28a" stroke="#00a28a" stroke-width="0.09375" opacity="1.00" d=" M 1092.06 1014.79 C 1107.88 1012.04 1124.01 1012.93 1139.97 1013.61 C 1149.63 1014.02 1159.32 1013.64 1168.96 1014.54 C 1222.03 1016.44 1275.02 1020.04 1327.98 1023.97 C 1352.37 1025.92 1376.80 1027.74 1401.03 1031.18 C 1407.69 1032.47 1415.42 1033.44 1419.87 1039.20 C 1425.55 1045.23 1426.23 1053.98 1427.06 1061.82 C 1428.54 1089.84 1427.87 1117.91 1428.18 1145.96 C 1428.11 1168.66 1429.24 1191.33 1429.14 1214.03 C 1429.06 1233.02 1430.29 1251.98 1430.15 1270.97 C 1430.07 1286.00 1431.21 1301.00 1431.11 1316.03 C 1431.17 1327.00 1431.39 1337.98 1431.96 1348.95 C 1432.22 1361.33 1432.04 1373.72 1432.63 1386.10 C 1433.44 1399.74 1432.87 1413.41 1433.61 1427.05 C 1434.43 1439.70 1433.88 1452.40 1434.60 1465.06 C 1435.42 1477.04 1434.87 1489.07 1435.62 1501.06 C 1436.39 1511.70 1435.90 1522.39 1436.57 1533.04 C 1437.44 1544.38 1436.85 1555.77 1437.82 1567.11 C 1438.27 1577.40 1438.10 1587.72 1438.98 1597.99 C 1439.02 1611.69 1440.22 1625.34 1440.35 1639.04 C 1441.28 1648.94 1440.91 1658.90 1441.75 1668.81 C 1444.83 1744.60 1449.12 1820.33 1453.16 1896.08 C 1455.21 1930.72 1456.80 1965.38 1459.19 2000.00 L 739.81 2000.00 C 740.02 1992.36 739.74 1984.71 740.36 1977.09 C 741.27 1965.43 740.52 1953.72 741.46 1942.07 C 742.22 1930.75 741.55 1919.39 742.46 1908.09 C 743.22 1896.75 742.55 1885.37 743.42 1874.04 C 744.24 1862.06 743.53 1850.04 744.44 1838.07 C 745.24 1825.40 744.54 1812.70 745.46 1800.04 C 746.25 1785.37 745.52 1770.66 746.44 1755.99 C 747.11 1742.17 746.72 1728.32 747.14 1714.50 C 748.39 1694.70 747.41 1674.85 748.53 1655.06 C 749.00 1640.37 748.87 1625.68 749.02 1611.00 C 750.49 1577.66 749.48 1544.28 750.59 1510.93 C 750.93 1481.96 750.88 1452.98 750.91 1424.01 C 750.81 1377.34 751.15 1330.67 749.99 1284.02 C 749.91 1261.00 750.00 1237.98 749.46 1214.96 C 748.47 1191.32 749.32 1167.63 748.39 1143.98 C 747.64 1129.98 748.11 1115.96 747.74 1101.95 C 747.69 1093.63 746.90 1085.33 746.98 1077.00 C 747.03 1064.35 746.44 1051.56 748.89 1039.07 C 750.12 1032.68 754.48 1027.03 760.57 1024.60 C 771.46 1020.09 783.48 1020.20 795.03 1019.10 C 806.38 1018.88 817.69 1017.76 829.05 1017.69 C 841.37 1016.56 853.75 1017.14 866.07 1016.12 C 876.73 1015.85 887.39 1015.95 898.06 1015.84 C 909.68 1016.33 921.26 1018.29 932.42 1021.63 C 943.29 1024.95 953.83 1029.33 964.85 1032.18 C 975.33 1035.06 986.17 1036.41 997.02 1036.71 C 1010.51 1036.61 1023.92 1034.43 1036.95 1030.96 C 1055.51 1026.22 1073.03 1017.77 1092.06 1014.79 Z" />
<path fill="#014551" stroke="#014551" stroke-width="0.09375" opacity="1.00" d=" M 691.95 1039.96 C 699.48 1037.17 707.08 1034.15 715.12 1033.25 C 719.70 1032.71 723.02 1036.73 724.35 1040.66 C 727.75 1050.18 727.87 1060.45 728.43 1070.44 C 729.35 1081.59 728.98 1092.79 729.21 1103.98 C 729.28 1118.33 730.28 1132.66 730.11 1147.02 C 730.00 1170.69 731.23 1194.35 731.11 1218.02 C 731.18 1239.02 731.47 1260.02 732.02 1281.01 C 732.12 1312.34 732.20 1343.67 732.34 1375.00 C 732.58 1425.00 732.25 1475.00 732.08 1525.00 C 732.19 1545.99 731.15 1566.96 731.17 1587.95 C 731.27 1614.63 729.87 1641.29 730.02 1667.98 C 728.86 1689.63 729.51 1711.34 728.45 1733.00 C 727.93 1747.32 728.40 1761.67 727.57 1775.98 C 726.92 1789.95 727.45 1803.95 726.55 1817.92 C 725.94 1829.61 726.39 1841.33 725.62 1853.03 C 724.90 1864.98 725.41 1876.96 724.58 1888.92 C 723.92 1899.76 724.39 1910.64 723.69 1921.49 C 722.88 1934.28 723.40 1947.12 722.45 1959.92 C 722.13 1973.28 721.92 1986.65 721.21 2000.00 L 538.81 2000.00 C 538.77 1991.98 539.23 1983.98 539.79 1975.99 C 539.76 1963.62 541.10 1951.31 541.05 1938.94 C 542.11 1927.68 541.62 1916.35 542.59 1905.09 C 543.04 1898.71 542.77 1892.31 543.11 1885.94 C 544.19 1872.98 543.72 1859.97 544.78 1847.02 C 544.62 1833.67 546.05 1820.38 545.94 1807.03 C 546.02 1798.67 547.01 1790.35 546.90 1781.99 C 546.70 1770.98 548.02 1760.03 547.91 1749.03 C 547.72 1737.67 549.02 1726.35 548.91 1715.00 C 548.73 1701.64 550.10 1688.33 549.93 1674.98 C 549.70 1663.97 550.80 1653.00 550.83 1642.00 C 551.05 1631.34 550.72 1620.67 551.41 1610.03 C 552.07 1594.68 551.82 1579.30 552.04 1563.94 C 553.14 1540.31 552.82 1516.64 553.03 1492.99 C 553.94 1467.01 553.87 1441.02 553.96 1415.03 C 553.76 1394.68 554.59 1374.35 554.69 1354.01 C 554.92 1327.02 554.94 1300.04 554.97 1273.05 C 555.95 1225.70 555.90 1178.33 556.00 1130.97 C 556.77 1121.33 557.36 1110.62 564.04 1102.98 C 570.26 1095.92 578.49 1091.04 586.65 1086.55 C 601.52 1078.76 616.98 1072.18 632.29 1065.31 C 652.03 1056.53 671.91 1048.05 691.95 1039.96 Z" />
<path fill="#000000" stroke="#000000" stroke-width="0.09375" opacity="1.00" d=" M 1249.36 1048.50 C 1251.32 1047.53 1253.51 1047.83 1255.51 1048.60 C 1271.83 1054.74 1287.11 1064.12 1299.09 1076.89 C 1311.61 1090.29 1318.87 1108.01 1321.27 1126.06 C 1324.11 1146.99 1318.29 1167.96 1310.24 1187.12 C 1308.41 1191.67 1306.41 1197.51 1300.91 1198.52 C 1294.60 1200.16 1288.66 1192.94 1290.91 1187.02 C 1294.20 1178.02 1298.31 1169.28 1300.54 1159.92 C 1305.44 1141.75 1304.59 1121.74 1296.37 1104.65 C 1289.17 1089.33 1275.39 1078.13 1260.60 1070.54 C 1255.83 1067.86 1250.23 1066.62 1245.99 1063.09 C 1241.24 1058.91 1242.93 1049.88 1249.36 1048.50 Z" />
<path fill="#000000" stroke="#000000" stroke-width="0.09375" opacity="1.00" d=" M 1175.22 1076.33 C 1198.32 1074.21 1222.12 1076.96 1243.37 1086.61 C 1255.48 1091.93 1266.26 1100.43 1273.46 1111.61 C 1279.76 1121.21 1283.28 1132.91 1281.67 1144.42 C 1278.09 1165.20 1267.58 1183.98 1263.42 1204.61 C 1261.36 1214.26 1261.80 1224.16 1261.92 1233.96 C 1262.50 1245.80 1264.93 1257.47 1268.14 1268.87 C 1269.69 1273.46 1267.82 1279.26 1263.16 1281.22 C 1258.84 1283.75 1253.72 1282.01 1249.04 1282.15 C 1224.75 1281.91 1200.23 1282.45 1176.40 1287.62 C 1139.26 1295.50 1107.70 1319.72 1070.02 1325.74 C 1052.62 1328.86 1033.44 1325.86 1019.35 1314.68 C 1007.71 1305.44 1001.24 1291.27 998.10 1277.04 C 992.83 1253.68 996.44 1229.08 1004.77 1206.88 C 1010.42 1191.65 1018.87 1177.61 1028.69 1164.72 C 1048.10 1139.26 1071.51 1116.34 1099.63 1100.68 C 1122.72 1087.32 1148.68 1079.02 1175.22 1076.33 Z" />
<path fill="#ededed" stroke="#ededed" stroke-width="0.09375" opacity="1.00" d=" M 1196.89 1093.96 C 1213.99 1095.40 1231.61 1098.98 1246.05 1108.74 C 1246.21 1116.52 1247.17 1124.64 1244.46 1132.12 C 1243.28 1135.43 1240.23 1137.72 1236.90 1138.56 C 1225.72 1141.55 1213.68 1140.36 1202.89 1136.43 C 1200.04 1135.44 1196.75 1133.48 1196.94 1130.02 C 1196.72 1118.01 1197.05 1105.98 1196.89 1093.96 Z" />
<path fill="#ededed" stroke="#ededed" stroke-width="0.09375" opacity="1.00" d=" M 1097.96 1122.80 C 1118.69 1109.10 1142.21 1099.60 1166.80 1095.83 C 1167.59 1106.15 1168.17 1116.93 1164.79 1126.89 C 1163.28 1131.53 1158.77 1134.31 1154.19 1135.22 C 1142.24 1137.69 1129.97 1137.12 1117.86 1136.98 C 1112.10 1136.31 1105.95 1136.15 1100.83 1133.16 C 1097.82 1130.67 1097.88 1126.35 1097.96 1122.80 Z" />
<path fill="#014551" stroke="#014551" stroke-width="0.09375" opacity="1.00" d=" M 1254.67 1148.77 C 1259.05 1144.80 1261.08 1139.16 1263.31 1133.86 C 1264.43 1140.85 1262.59 1147.81 1260.51 1154.44 C 1256.62 1167.32 1251.16 1179.66 1247.58 1192.64 C 1240.97 1215.87 1242.54 1240.70 1248.05 1263.99 C 1240.06 1264.09 1232.08 1264.04 1224.09 1264.02 C 1208.30 1243.50 1186.16 1227.41 1160.80 1221.22 C 1159.46 1203.52 1156.15 1185.44 1147.26 1169.84 C 1144.12 1164.28 1139.82 1159.49 1134.90 1155.47 C 1146.10 1154.87 1157.93 1154.79 1168.02 1149.17 C 1173.03 1146.57 1176.81 1142.26 1179.88 1137.62 C 1182.17 1143.32 1186.16 1148.42 1191.77 1151.15 C 1201.41 1156.07 1212.30 1158.17 1223.03 1158.75 C 1234.10 1158.35 1246.28 1156.74 1254.67 1148.77 Z" />
<path fill="#014551" stroke="#014551" stroke-width="0.09375" opacity="1.00" d=" M 1060.99 1154.48 C 1067.23 1147.72 1073.85 1141.27 1080.98 1135.45 C 1083.26 1141.14 1087.02 1146.43 1092.59 1149.30 C 1096.35 1151.45 1100.59 1152.51 1104.67 1153.90 C 1096.63 1158.85 1090.17 1165.89 1085.12 1173.81 C 1079.59 1164.86 1071.28 1157.34 1060.99 1154.48 Z" />
<path fill="#ff002c" stroke="#ff002c" stroke-width="0.09375" opacity="1.00" d=" M 1130.02 1244.01 C 1130.10 1240.01 1134.24 1237.40 1137.94 1237.34 C 1161.96 1236.27 1184.96 1248.13 1201.22 1265.25 C 1184.20 1267.03 1167.26 1270.22 1151.13 1276.04 C 1133.09 1282.44 1116.14 1291.45 1098.37 1298.53 C 1087.31 1302.99 1075.84 1306.85 1063.91 1308.08 C 1055.45 1308.64 1046.64 1308.68 1038.70 1305.31 C 1022.86 1299.09 1013.08 1279.06 1020.09 1263.12 C 1023.77 1255.90 1028.93 1249.04 1036.17 1245.12 C 1051.00 1236.40 1069.60 1235.96 1085.66 1241.35 C 1096.07 1244.90 1105.69 1250.72 1113.77 1258.19 C 1118.35 1262.14 1121.63 1268.04 1128.00 1269.38 C 1131.31 1268.35 1135.38 1267.16 1136.26 1263.28 C 1139.05 1255.93 1131.06 1250.77 1130.02 1244.01 Z" />
<path fill="#000000" stroke="#000000" stroke-width="0.09375" opacity="1.00" d=" M 1289.25 1243.17 C 1293.36 1241.35 1298.03 1244.27 1300.26 1247.75 C 1310.87 1264.11 1320.14 1282.24 1321.77 1301.97 C 1322.22 1317.57 1317.12 1333.74 1306.22 1345.17 C 1298.31 1353.36 1288.06 1359.31 1276.97 1361.94 C 1257.05 1366.39 1237.57 1357.99 1217.94 1355.90 C 1195.96 1352.77 1173.27 1354.43 1152.12 1361.29 C 1132.31 1367.37 1113.97 1377.38 1094.14 1383.38 C 1078.34 1388.24 1061.42 1390.72 1045.03 1387.54 C 1028.72 1384.63 1013.39 1376.93 1001.08 1365.87 C 986.64 1352.96 975.80 1336.29 968.71 1318.32 C 963.40 1304.70 960.02 1290.41 957.18 1276.09 C 955.66 1267.86 954.28 1259.42 955.42 1251.06 C 956.09 1245.51 962.69 1241.63 967.77 1244.25 C 971.17 1245.69 972.93 1249.46 973.07 1252.99 C 973.24 1266.58 976.37 1279.89 979.64 1293.01 C 983.38 1307.86 989.00 1322.41 997.85 1335.01 C 1007.26 1348.57 1019.99 1360.45 1035.67 1366.23 C 1052.22 1372.41 1070.67 1371.38 1087.39 1366.46 C 1105.80 1361.17 1122.79 1352.05 1140.90 1345.93 C 1163.87 1337.70 1188.65 1334.08 1212.95 1336.93 C 1225.14 1337.87 1237.06 1340.68 1249.01 1343.11 C 1256.56 1344.37 1264.34 1346.02 1271.96 1344.35 C 1280.43 1342.86 1288.14 1338.17 1293.91 1331.87 C 1300.45 1324.63 1303.38 1314.67 1303.28 1305.04 C 1303.58 1294.20 1299.35 1283.93 1294.85 1274.29 C 1291.85 1267.80 1287.60 1262.02 1284.28 1255.73 C 1281.70 1251.08 1284.10 1244.71 1289.25 1243.17 Z" />
</svg>
