<?xml version="1.0" encoding="UTF-8" ?>
<!DOCTYPE svg PUBLIC "-//W3C//DTD SVG 1.1//EN" "http://www.w3.org/Graphics/SVG/1.1/DTD/svg11.dtd">
<svg width="100%" height="100%" viewBox="0 0 2000 2000" version="1.1" xmlns="http://www.w3.org/2000/svg">
<path fill="#ff5400" stroke="#ff5400" stroke-width="0.09375" opacity="1.00" d=" M 0.00 0.00 L 2000.00 0.00 L 2000.00 2000.00 L 1390.94 2000.00 C 1385.71 1931.02 1380.52 1862.04 1376.83 1792.97 C 1375.37 1761.93 1374.02 1730.87 1373.59 1699.79 C 1372.64 1678.21 1372.81 1656.60 1372.53 1635.01 C 1372.43 1619.32 1372.38 1603.64 1372.91 1587.97 C 1373.20 1578.30 1377.42 1569.04 1383.93 1561.98 C 1388.74 1556.07 1395.29 1551.99 1400.54 1546.52 C 1420.50 1527.10 1429.97 1498.52 1428.92 1471.01 C 1429.40 1445.90 1422.40 1421.44 1421.38 1396.45 C 1420.99 1387.47 1422.89 1378.56 1426.28 1370.27 C 1429.81 1360.65 1435.89 1352.29 1440.11 1342.99 C 1447.67 1327.48 1451.91 1310.27 1451.64 1292.97 C 1450.95 1271.64 1442.86 1250.91 1430.10 1233.93 C 1425.59 1227.78 1419.91 1222.54 1416.07 1215.92 C 1411.84 1209.34 1409.40 1201.71 1408.76 1193.94 C 1408.21 1181.29 1408.60 1168.60 1410.49 1156.06 C 1411.54 1148.01 1413.50 1139.40 1419.56 1133.56 C 1425.67 1127.93 1433.35 1124.46 1440.73 1120.85 C 1455.42 1114.01 1470.41 1107.70 1484.38 1099.41 C 1510.86 1083.93 1534.28 1063.26 1552.92 1038.90 C 1575.20 1009.92 1590.74 975.82 1598.07 940.01 C 1606.29 900.33 1604.16 858.58 1592.01 819.92 C 1581.35 785.64 1562.93 753.80 1538.48 727.52 C 1529.16 717.44 1518.83 708.36 1508.08 699.86 C 1502.01 695.15 1497.22 687.93 1498.00 679.95 C 1499.18 668.33 1503.05 657.23 1505.79 645.93 C 1510.55 627.08 1511.88 607.46 1510.38 588.11 C 1507.15 549.78 1493.37 513.18 1475.77 479.28 C 1446.03 422.69 1405.82 371.10 1355.49 331.37 C 1340.13 319.19 1323.72 308.43 1307.20 297.91 C 1295.50 290.43 1283.65 283.05 1273.11 273.96 C 1265.41 267.29 1258.36 259.90 1251.91 252.04 C 1245.91 244.75 1239.82 237.45 1232.41 231.54 C 1227.53 227.80 1224.17 222.14 1223.53 216.01 C 1222.22 206.05 1223.60 195.94 1222.44 185.97 C 1220.30 167.96 1213.41 150.26 1201.49 136.46 C 1189.81 122.96 1173.57 113.04 1155.77 110.50 C 1145.08 109.37 1134.23 110.22 1123.84 112.92 C 1111.85 115.87 1100.21 120.25 1087.96 122.12 C 1069.23 124.90 1049.99 124.36 1031.64 129.54 C 1019.87 132.43 1008.91 137.73 997.40 141.40 C 987.27 144.57 976.69 146.08 966.12 146.77 C 946.83 147.98 928.00 153.93 910.95 162.93 C 901.51 167.74 893.10 174.49 883.13 178.26 C 868.09 183.72 851.74 182.54 836.29 186.16 C 793.59 194.66 756.02 219.24 724.44 248.38 C 713.76 258.70 700.26 265.44 686.42 270.47 C 659.92 280.15 633.30 291.24 611.50 309.59 C 598.36 321.12 580.85 325.08 564.39 329.36 C 535.37 337.13 508.75 354.76 491.83 379.78 C 482.31 393.62 475.48 409.31 471.92 425.73 C 468.36 442.38 469.23 459.74 472.86 476.30 C 476.14 490.71 481.54 504.82 490.14 516.92 C 498.88 529.35 510.44 539.57 523.02 547.99 C 540.64 559.75 560.98 566.67 581.41 571.74 C 596.02 575.41 611.03 577.09 626.05 577.92 C 629.66 577.82 633.91 580.92 632.15 584.91 C 628.69 590.67 622.00 593.28 616.33 596.35 C 596.07 606.77 576.18 617.90 556.71 629.72 C 542.61 638.33 528.58 647.19 515.81 657.73 C 507.07 664.90 499.19 673.84 495.91 684.88 C 492.05 697.09 493.75 710.02 494.69 722.53 C 500.99 776.65 502.88 831.11 504.83 885.50 C 506.73 942.09 509.97 998.62 514.23 1055.07 C 514.52 1065.88 517.29 1077.36 512.62 1087.63 C 509.32 1095.16 501.54 1098.84 494.96 1102.96 C 486.92 1107.65 479.69 1114.19 475.66 1122.70 C 471.12 1132.25 470.20 1142.97 469.47 1153.38 C 468.60 1177.66 470.30 1201.93 472.30 1226.12 C 475.27 1262.59 480.92 1298.82 488.49 1334.61 C 491.15 1346.21 493.55 1358.14 499.36 1368.67 C 503.23 1375.83 509.39 1381.67 516.74 1385.18 C 521.38 1387.62 526.61 1388.56 531.40 1390.62 C 535.43 1392.59 536.60 1397.33 537.65 1401.30 C 539.82 1411.02 540.03 1421.03 541.00 1430.92 C 545.02 1483.91 549.06 1536.91 551.30 1590.01 C 553.55 1637.33 554.98 1684.69 556.19 1732.05 C 556.23 1755.36 557.39 1778.66 557.26 1801.98 C 557.56 1861.65 558.98 1921.32 557.67 1980.99 C 557.56 1987.32 557.46 1993.66 557.38 2000.00 L 0.00 2000.00 L 0.00 0.00 Z" />
<path fill="#000000" stroke="#000000" stroke-width="0.09375" opacity="1.00" d=" M 1123.84 112.92 C 1134.23 110.22 1145.08 109.37 1155.77 110.50 C 1173.57 113.04 1189.81 122.96 1201.49 136.46 C 1213.41 150.26 1220.30 167.96 1222.44 185.97 C 1223.60 195.94 1222.22 206.05 1223.53 216.01 C 1224.17 222.14 1227.53 227.80 1232.41 231.54 C 1239.82 237.45 1245.91 244.75 1251.91 252.04 C 1258.36 259.90 1265.41 267.29 1273.11 273.96 C 1283.65 283.05 1295.50 290.43 1307.20 297.91 C 1323.72 308.43 1340.13 319.19 1355.49 331.37 C 1405.82 371.10 1446.03 422.69 1475.77 479.28 C 1493.37 513.18 1507.15 549.78 1510.38 588.11 C 1511.88 607.46 1510.55 627.08 1505.79 645.93 C 1503.05 657.23 1499.18 668.33 1498.00 679.95 C 1497.22 687.93 1502.01 695.15 1508.08 699.86 C 1518.83 708.36 1529.16 717.44 1538.48 727.52 C 1562.93 753.80 1581.35 785.64 1592.01 819.92 C 1604.16 858.58 1606.29 900.33 1598.07 940.01 C 1590.74 975.82 1575.20 1009.92 1552.92 1038.90 C 1534.28 1063.26 1510.86 1083.93 1484.38 1099.41 C 1470.41 1107.70 1455.42 1114.01 1440.73 1120.85 C 1433.35 1124.46 1425.67 1127.93 1419.56 1133.56 C 1413.50 1139.40 1411.54 1148.01 1410.49 1156.06 C 1408.60 1168.60 1408.21 1181.29 1408.76 1193.94 C 1409.40 1201.71 1411.84 1209.34 1416.07 1215.92 C 1419.91 1222.54 1425.59 1227.78 1430.10 1233.93 C 1442.86 1250.91 1450.95 1271.64 1451.64 1292.97 C 1451.91 1310.27 1447.67 1327.48 1440.11 1342.99 C 1435.89 1352.29 1429.81 1360.65 1426.28 1370.27 C 1422.89 1378.56 1420.99 1387.47 1421.38 1396.45 C 1422.40 1421.44 1429.40 1445.90 1428.92 1471.01 C 1429.97 1498.52 1420.50 1527.10 1400.54 1546.52 C 1395.29 1551.99 1388.74 1556.07 1383.93 1561.98 C 1377.42 1569.04 1373.20 1578.30 1372.91 1587.97 C 1372.38 1603.64 1372.43 1619.32 1372.53 1635.01 C 1372.81 1656.60 1372.64 1678.21 1373.59 1699.79 C 1374.02 1730.87 1375.37 1761.93 1376.83 1792.97 C 1380.52 1862.04 1385.71 1931.02 1390.94 2000.00 L 1351.30 2000.00 C 1349.25 1957.02 1347.10 1914.03 1345.95 1871.01 C 1345.22 1858.69 1345.28 1846.34 1345.12 1834.00 C 1344.22 1813.02 1344.26 1792.01 1344.16 1771.02 C 1344.04 1725.02 1344.05 1679.01 1344.49 1633.02 C 1344.76 1618.68 1345.28 1604.18 1342.77 1590.00 C 1341.57 1584.07 1339.46 1577.13 1333.45 1574.48 C 1325.71 1571.30 1317.13 1571.50 1308.96 1572.32 C 1284.70 1574.06 1260.22 1568.86 1238.11 1558.93 C 1219.18 1550.54 1203.24 1536.68 1189.62 1521.32 C 1185.28 1515.95 1180.67 1510.67 1177.47 1504.53 C 1174.79 1499.69 1178.15 1493.02 1183.59 1492.24 C 1187.65 1491.40 1191.61 1493.91 1193.63 1497.35 C 1201.66 1509.36 1211.83 1519.80 1223.01 1528.91 C 1238.71 1541.83 1258.34 1549.18 1278.18 1552.79 C 1301.46 1556.46 1325.83 1554.33 1347.82 1545.68 C 1359.74 1540.93 1371.20 1534.47 1380.36 1525.36 C 1387.73 1517.93 1393.72 1508.97 1397.07 1499.03 C 1400.65 1488.42 1400.80 1477.09 1400.29 1466.03 C 1398.95 1447.46 1394.84 1429.25 1391.69 1410.94 C 1389.82 1400.29 1388.13 1389.61 1386.62 1378.92 C 1385.89 1373.45 1389.08 1368.52 1392.73 1364.78 C 1406.44 1349.04 1417.02 1329.90 1420.02 1309.04 C 1422.29 1293.88 1420.31 1278.03 1413.94 1264.06 C 1407.21 1249.20 1396.00 1236.71 1383.02 1227.01 C 1367.33 1215.33 1349.05 1207.50 1330.21 1202.57 C 1326.48 1201.59 1322.30 1199.88 1321.04 1195.88 C 1318.75 1190.21 1324.06 1183.81 1329.99 1184.37 C 1335.66 1185.08 1341.02 1187.29 1346.57 1188.64 C 1354.29 1190.49 1361.92 1193.75 1370.00 1193.37 C 1374.60 1193.23 1377.81 1189.14 1378.94 1185.01 C 1382.15 1174.33 1381.63 1163.03 1382.95 1152.05 C 1383.15 1142.36 1383.95 1131.82 1378.81 1123.14 C 1374.57 1115.97 1365.85 1113.54 1358.14 1112.41 C 1314.63 1105.68 1274.09 1082.90 1244.91 1050.05 C 1239.68 1044.34 1235.13 1037.51 1227.93 1034.10 C 1223.65 1032.01 1218.50 1033.02 1214.78 1035.77 C 1209.54 1039.53 1205.96 1045.01 1201.99 1049.99 C 1182.54 1075.53 1158.10 1097.42 1129.98 1113.02 C 1096.35 1131.84 1057.58 1141.61 1019.03 1140.26 C 980.59 1139.00 942.76 1127.03 909.98 1107.05 C 858.30 1075.77 819.64 1025.22 799.19 968.70 C 782.21 922.01 777.04 870.96 785.22 821.91 C 794.65 763.86 822.67 708.17 866.85 668.87 C 904.58 635.00 954.21 614.13 1005.05 612.90 C 1046.35 611.49 1087.68 622.94 1123.28 643.71 C 1158.92 664.38 1188.87 694.30 1210.87 729.04 C 1215.07 735.28 1218.35 742.14 1223.10 748.01 C 1226.04 751.50 1230.08 755.02 1234.99 754.44 C 1239.75 754.20 1243.00 750.25 1246.18 747.19 C 1255.18 737.69 1264.35 728.27 1274.80 720.36 C 1281.46 715.45 1288.12 710.51 1295.23 706.25 C 1302.06 702.18 1308.96 698.11 1315.03 692.93 C 1318.68 689.70 1321.83 684.76 1320.33 679.70 C 1317.61 669.96 1309.98 662.83 1303.64 655.35 C 1283.58 632.34 1258.20 614.35 1230.66 601.37 C 1197.22 585.28 1160.97 576.08 1124.56 569.73 C 1088.57 563.50 1052.29 558.75 1015.85 556.21 C 989.29 554.13 962.71 551.58 936.04 551.82 C 918.68 551.65 901.33 551.71 883.98 552.06 C 874.15 553.02 864.25 552.18 854.43 553.28 C 831.75 554.29 808.90 556.45 786.96 562.53 C 775.94 565.30 765.59 570.23 755.64 575.62 C 741.75 583.11 730.17 594.44 721.60 607.63 C 713.71 619.58 709.82 633.75 708.57 647.91 C 706.07 677.24 708.20 706.69 709.60 736.01 C 710.96 757.66 712.12 779.32 713.56 800.96 C 717.22 858.05 723.15 914.97 726.92 972.05 C 729.49 1010.01 732.85 1047.95 733.42 1086.02 C 733.61 1090.06 732.50 1094.61 729.02 1097.05 C 725.97 1099.24 721.47 1098.76 718.91 1096.05 C 716.11 1093.13 715.57 1088.87 715.61 1085.01 C 715.78 1057.27 713.25 1029.64 711.48 1001.98 C 709.59 974.96 707.70 947.93 705.50 920.92 C 702.90 888.29 699.83 855.69 697.50 823.04 C 695.76 799.05 694.41 775.04 692.92 751.04 C 691.95 731.61 690.47 712.21 690.26 692.74 C 689.55 682.03 689.49 671.27 690.30 660.57 C 690.43 647.82 692.09 635.07 695.58 622.81 C 697.39 616.36 699.70 609.76 698.73 602.97 C 698.34 599.57 696.33 596.13 692.94 595.04 C 688.02 593.29 682.79 595.13 678.27 597.17 C 629.88 620.05 582.88 646.15 539.25 677.23 C 533.01 682.04 525.51 687.43 524.83 696.00 C 523.48 713.65 525.86 731.30 526.63 748.92 C 529.65 790.90 531.12 832.96 533.51 874.97 C 535.90 923.87 538.39 972.76 542.13 1021.59 C 543.82 1045.45 545.39 1069.33 547.31 1093.18 C 565.96 1087.62 585.13 1083.85 604.47 1081.65 C 619.62 1079.92 634.87 1078.52 650.14 1079.08 C 654.66 1079.16 659.37 1081.19 661.50 1085.39 C 668.77 1098.84 673.33 1113.51 678.08 1127.98 C 690.89 1168.75 697.60 1211.35 698.85 1254.03 C 700.20 1290.06 698.30 1326.40 690.76 1361.73 C 689.81 1366.77 687.62 1372.22 682.64 1374.49 C 675.94 1377.36 668.59 1378.13 661.47 1379.35 C 630.46 1383.66 599.07 1384.19 567.81 1383.41 C 571.48 1435.60 574.67 1487.82 578.10 1540.02 C 581.72 1598.66 585.09 1657.31 586.96 1716.04 C 587.83 1727.33 587.28 1738.68 588.11 1749.98 C 588.77 1761.98 588.31 1774.02 589.18 1786.01 C 589.74 1798.31 589.33 1810.65 590.16 1822.94 C 590.75 1837.28 590.33 1851.64 591.20 1865.97 C 591.56 1879.65 591.57 1893.34 591.79 1907.03 C 592.62 1923.98 592.47 1940.97 592.67 1957.94 C 592.51 1966.64 593.49 1975.31 593.54 1984.01 C 593.61 1989.34 593.75 1994.68 594.32 2000.00 L 557.38 2000.00 C 557.46 1993.66 557.56 1987.32 557.67 1980.99 C 558.98 1921.32 557.56 1861.65 557.26 1801.98 C 557.39 1778.66 556.23 1755.36 556.19 1732.05 C 554.98 1684.69 553.55 1637.33 551.30 1590.01 C 549.06 1536.91 545.02 1483.91 541.00 1430.92 C 540.03 1421.03 539.82 1411.02 537.65 1401.30 C 536.60 1397.33 535.43 1392.59 531.40 1390.62 C 526.61 1388.56 521.38 1387.62 516.74 1385.18 C 509.39 1381.67 503.23 1375.83 499.36 1368.67 C 493.55 1358.14 491.15 1346.21 488.49 1334.61 C 480.92 1298.82 475.27 1262.59 472.30 1226.12 C 470.30 1201.93 468.60 1177.66 469.47 1153.38 C 470.20 1142.97 471.12 1132.25 475.66 1122.70 C 479.69 1114.19 486.92 1107.65 494.96 1102.96 C 501.54 1098.84 509.32 1095.16 512.62 1087.63 C 517.29 1077.36 514.52 1065.88 514.23 1055.07 C 509.97 998.62 506.73 942.09 504.83 885.50 C 502.88 831.11 500.99 776.65 494.69 722.53 C 493.75 710.02 492.05 697.09 495.91 684.88 C 499.19 673.84 507.07 664.90 515.81 657.73 C 528.58 647.19 542.61 638.33 556.71 629.72 C 576.18 617.90 596.07 606.77 616.33 596.35 C 622.00 593.28 628.69 590.67 632.15 584.91 C 633.91 580.92 629.66 577.82 626.05 577.92 C 611.03 577.09 596.02 575.41 581.41 571.74 C 560.98 566.67 540.64 559.75 523.02 547.99 C 510.44 539.57 498.88 529.35 490.14 516.92 C 481.54 504.82 476.14 490.71 472.86 476.30 C 469.23 459.74 468.36 442.38 471.92 425.73 C 475.48 409.31 482.31 393.62 491.83 379.78 C 508.75 354.76 535.37 337.13 564.39 329.36 C 580.85 325.08 598.36 321.12 611.50 309.59 C 633.30 291.24 659.92 280.15 686.42 270.47 C 700.26 265.44 713.76 258.70 724.44 248.38 C 756.02 219.24 793.59 194.66 836.29 186.16 C 851.74 182.54 868.09 183.72 883.13 178.26 C 893.10 174.49 901.51 167.74 910.95 162.93 C 928.00 153.93 946.83 147.98 966.12 146.77 C 976.69 146.08 987.27 144.57 997.40 141.40 C 1008.91 137.73 1019.87 132.43 1031.64 129.54 C 1049.99 124.36 1069.23 124.90 1087.96 122.12 C 1100.21 120.25 1111.85 115.87 1123.84 112.92 Z" />
<path fill="#c18300" stroke="#c18300" stroke-width="0.09375" opacity="1.00" d=" M 1118.61 137.52 C 1133.39 134.16 1149.69 134.40 1163.41 141.47 C 1177.39 148.42 1189.90 159.91 1194.87 175.05 C 1198.09 184.96 1200.32 195.57 1198.97 206.01 C 1197.37 212.12 1195.68 219.51 1189.42 222.51 C 1184.24 224.86 1178.50 225.71 1172.88 226.19 C 1158.80 227.73 1144.88 230.85 1131.53 235.56 C 1121.33 238.99 1111.30 242.90 1101.00 246.02 C 1089.12 249.82 1076.47 250.61 1064.09 249.85 C 1043.22 247.69 1021.84 248.22 1001.47 253.62 C 986.09 257.76 971.19 264.59 959.09 275.09 C 948.19 284.50 939.16 296.20 926.56 303.53 C 909.61 314.17 889.26 316.16 869.95 319.23 C 853.78 321.81 836.70 324.27 823.13 334.16 C 810.32 343.35 803.23 357.86 794.66 370.63 C 788.80 379.26 782.79 388.00 774.73 394.74 C 766.16 402.00 755.05 405.71 743.99 406.82 C 736.16 405.95 727.23 407.65 720.61 402.38 C 715.06 398.70 716.85 390.50 711.64 386.50 C 707.63 382.89 700.74 384.48 698.49 389.31 C 695.93 394.11 699.35 399.06 699.75 403.94 C 701.67 418.63 696.07 433.55 687.07 445.02 C 684.69 448.24 681.08 450.49 677.11 451.01 C 673.97 451.43 670.28 449.67 669.78 446.29 C 665.94 432.21 658.74 418.99 648.53 408.52 C 635.74 395.31 618.34 386.73 600.13 384.36 C 578.85 381.48 556.93 387.48 539.07 399.13 C 535.95 401.17 532.44 403.35 531.23 407.10 C 528.79 412.92 535.09 419.67 541.09 418.24 C 544.48 417.30 547.18 414.91 550.14 413.12 C 567.66 401.99 590.09 398.46 609.96 404.83 C 625.09 409.59 638.04 420.46 645.81 434.23 C 649.19 440.52 652.77 447.50 651.45 454.87 C 650.88 459.43 648.46 464.37 643.96 466.12 C 638.87 467.23 633.47 465.67 629.50 462.37 C 627.01 460.20 624.17 458.50 620.98 457.61 C 618.17 458.57 614.66 459.27 613.34 462.29 C 611.35 465.78 612.21 470.27 614.89 473.15 C 620.73 479.67 629.48 482.23 636.03 487.85 C 638.77 490.13 641.29 492.69 643.44 495.54 C 653.89 510.31 671.93 519.38 690.03 518.90 C 705.69 519.41 720.85 514.82 735.93 511.27 C 755.18 506.71 774.12 499.96 794.03 498.98 C 801.68 499.13 809.38 500.55 816.42 503.63 C 824.33 506.99 830.86 512.79 838.60 516.49 C 844.59 519.47 851.23 520.92 857.86 521.58 C 869.22 522.27 880.60 522.62 891.98 522.86 C 903.37 523.83 915.64 525.46 924.71 533.10 C 905.15 532.15 885.58 533.12 866.02 533.25 C 854.02 533.47 841.99 534.84 830.01 533.57 C 823.91 533.19 817.20 532.79 812.24 528.80 C 807.87 525.39 807.86 518.96 803.56 515.49 C 800.17 512.63 794.94 512.69 791.57 515.56 C 784.36 521.75 777.55 529.32 768.07 531.90 C 748.52 537.94 728.24 541.21 708.02 544.08 C 686.49 547.01 664.74 547.85 643.03 547.57 C 622.23 547.29 601.34 545.84 580.97 541.41 C 567.18 538.30 553.49 533.98 541.23 526.81 C 527.15 518.66 515.27 506.54 507.98 491.95 C 500.02 476.31 496.88 458.44 497.93 440.98 C 499.32 424.49 505.14 408.30 515.11 395.04 C 527.32 378.74 544.63 366.40 563.91 359.93 C 582.11 354.00 601.48 351.39 620.58 353.16 C 636.81 355.28 652.89 360.33 666.73 369.22 C 671.13 372.08 677.83 370.08 679.43 364.94 C 681.66 360.31 678.04 355.15 674.00 352.93 C 662.75 345.68 649.94 341.37 637.11 337.85 C 633.07 336.61 628.77 335.42 625.56 332.55 C 623.15 329.10 627.04 325.57 629.69 323.69 C 672.49 292.16 727.39 278.57 780.07 283.56 C 784.30 283.94 789.06 281.50 790.25 277.22 C 791.33 274.11 790.18 270.43 787.76 268.28 C 785.52 266.74 782.92 265.59 780.19 265.40 C 772.11 264.94 764.05 264.16 755.96 264.41 C 753.32 264.42 749.60 264.21 748.79 261.12 C 748.46 258.57 750.98 257.11 752.64 255.68 C 778.72 235.76 807.96 219.12 839.98 211.06 C 864.90 204.89 892.01 204.43 916.10 214.16 C 919.21 215.54 923.05 216.16 925.99 213.97 C 928.52 212.48 929.48 209.61 930.41 207.01 C 929.55 204.60 929.00 201.82 926.92 200.12 C 923.55 197.34 919.01 196.78 915.36 194.54 C 912.11 190.89 915.72 186.06 919.19 184.18 C 951.69 166.23 992.41 166.13 1026.09 180.98 C 1029.39 182.31 1032.88 184.46 1036.58 183.42 C 1041.95 182.50 1045.24 175.51 1042.10 170.91 C 1038.72 165.37 1031.50 164.77 1026.34 161.62 C 1024.78 158.85 1027.64 156.06 1030.14 155.25 C 1045.89 149.97 1062.56 148.66 1078.98 146.84 C 1092.55 145.45 1105.42 140.71 1118.61 137.52 Z" />
<path fill="#ffd400" stroke="#ffd400" stroke-width="0.09375" opacity="1.00" d=" M 1169.98 244.80 C 1182.60 243.06 1195.94 244.03 1207.59 249.49 C 1220.58 255.90 1228.62 268.46 1238.66 278.36 C 1253.03 292.85 1270.40 303.77 1287.58 314.55 C 1316.92 333.02 1344.46 354.48 1368.71 379.30 C 1415.30 426.92 1452.24 484.70 1472.36 548.42 C 1479.73 572.16 1484.08 597.33 1480.68 622.17 C 1478.66 638.86 1473.98 655.13 1467.73 670.71 C 1464.36 679.49 1460.67 688.21 1458.69 697.44 C 1456.14 708.44 1456.78 720.03 1459.63 730.91 C 1462.83 744.37 1468.06 757.89 1466.27 771.96 C 1465.34 781.07 1459.28 788.90 1451.81 793.83 C 1438.50 802.62 1420.43 802.89 1406.40 795.59 C 1395.95 790.10 1388.69 779.47 1386.35 768.00 C 1383.85 756.04 1385.85 743.69 1389.03 732.06 C 1394.18 714.23 1401.85 696.81 1402.83 678.05 C 1403.54 665.77 1400.62 653.53 1395.68 642.35 C 1393.72 637.62 1390.64 632.22 1385.02 631.55 C 1378.83 630.73 1373.38 638.05 1376.42 643.66 C 1380.21 650.74 1383.06 658.75 1382.35 666.89 C 1382.15 670.07 1380.32 673.33 1377.10 674.23 C 1372.21 675.77 1366.24 676.28 1361.79 673.31 C 1357.65 669.33 1356.80 663.28 1355.06 658.05 C 1351.30 643.40 1346.24 628.40 1335.87 617.01 C 1329.12 609.63 1320.53 603.82 1310.95 600.85 C 1304.51 598.70 1297.73 597.89 1291.02 597.08 C 1287.22 596.52 1283.07 595.66 1280.56 592.48 C 1273.78 584.43 1268.80 575.02 1261.87 567.09 C 1249.55 552.85 1233.07 542.23 1215.05 536.81 C 1195.44 530.75 1174.09 531.12 1154.56 537.32 C 1148.41 539.24 1141.77 542.37 1135.33 539.77 C 1125.93 535.79 1119.74 527.24 1111.74 521.26 C 1095.09 508.21 1073.12 501.47 1052.07 504.97 C 1037.94 507.25 1024.59 513.53 1013.53 522.56 C 1009.19 525.92 1005.51 530.27 1000.39 532.50 C 995.25 534.68 989.59 535.59 984.03 535.28 C 975.35 535.12 966.64 534.78 958.08 533.32 C 951.46 531.81 944.67 529.16 940.35 523.67 C 928.68 510.75 910.77 506.10 893.98 505.05 C 880.20 503.63 866.21 505.21 852.54 502.63 C 845.33 501.14 839.53 496.36 833.40 492.62 C 819.37 483.74 802.34 479.56 785.81 481.53 C 765.52 484.00 746.11 490.70 726.25 495.26 C 710.73 498.88 694.50 503.46 678.57 499.62 C 670.16 497.28 662.30 491.98 657.71 484.46 C 676.34 480.11 692.71 468.15 703.60 452.56 C 709.31 444.98 712.23 434.92 720.74 429.76 C 731.26 424.05 743.67 426.11 754.93 423.20 C 769.13 420.19 782.51 413.09 792.46 402.45 C 804.09 390.28 812.33 375.47 821.60 361.55 C 825.74 355.51 830.68 349.76 837.18 346.18 C 845.37 341.63 854.74 340.02 863.86 338.39 C 883.09 335.09 902.91 333.44 921.16 326.05 C 934.37 320.73 946.28 312.45 956.32 302.39 C 963.73 295.10 970.82 287.28 979.77 281.81 C 994.58 272.70 1011.90 268.48 1029.10 267.16 C 1057.64 265.04 1086.39 270.17 1113.25 279.74 C 1116.86 280.91 1120.39 282.38 1124.08 283.33 C 1128.39 284.50 1133.19 281.88 1134.66 277.68 C 1136.19 274.79 1134.56 271.55 1132.89 269.15 C 1131.00 266.54 1126.42 266.60 1125.78 263.03 C 1125.68 258.37 1130.34 255.81 1134.03 254.09 C 1145.44 249.16 1157.70 246.43 1169.98 244.80 Z" />
<path fill="#000000" stroke="#000000" stroke-width="0.09375" opacity="1.00" d=" M 1163.57 298.76 C 1187.04 296.70 1211.26 300.42 1232.62 310.52 C 1246.12 317.06 1259.12 327.03 1264.78 341.37 C 1268.82 350.86 1266.82 361.95 1261.57 370.56 C 1254.49 382.09 1242.23 389.25 1229.83 393.81 C 1205.86 402.28 1179.43 402.49 1154.87 396.44 C 1136.93 391.83 1118.76 383.88 1106.75 369.26 C 1101.30 362.43 1097.67 353.90 1097.71 345.08 C 1098.19 333.27 1105.21 322.59 1114.52 315.67 C 1128.63 305.12 1146.26 300.45 1163.57 298.76 Z" />
<path fill="#ff002c" stroke="#ff002c" stroke-width="0.09375" opacity="1.00" d=" M 1156.50 317.76 C 1178.14 314.54 1200.84 316.44 1221.17 324.80 C 1229.79 328.49 1238.21 333.46 1244.13 340.89 C 1248.34 346.38 1250.44 354.44 1246.78 360.74 C 1242.70 367.70 1235.52 372.14 1228.32 375.32 C 1212.18 382.19 1194.26 383.25 1176.96 382.05 C 1161.95 380.55 1146.88 376.87 1133.79 369.17 C 1126.71 364.87 1119.69 359.27 1116.67 351.29 C 1114.30 345.01 1116.60 337.86 1121.33 333.32 C 1130.63 323.99 1143.82 319.95 1156.50 317.76 Z" />
<path fill="#000000" stroke="#000000" stroke-width="0.09375" opacity="1.00" d=" M 935.54 355.77 C 955.90 353.29 976.75 354.89 996.50 360.44 C 1012.08 364.82 1027.09 371.97 1039.32 382.71 C 1047.80 390.56 1054.71 401.06 1055.60 412.85 C 1056.80 425.03 1051.07 437.03 1042.58 445.50 C 1031.29 456.75 1016.16 463.27 1000.91 467.13 C 972.22 474.12 941.48 472.26 913.72 462.28 C 898.55 456.63 883.76 448.23 873.75 435.21 C 866.52 425.60 862.12 412.80 865.59 400.89 C 868.61 388.90 877.22 379.06 887.37 372.37 C 901.68 362.83 918.62 357.99 935.54 355.77 Z" />
<path fill="#ff002c" stroke="#ff002c" stroke-width="0.09375" opacity="1.00" d=" M 941.17 373.20 C 959.40 371.61 978.00 373.21 995.51 378.65 C 1008.51 382.83 1021.51 388.96 1030.55 399.53 C 1035.73 405.33 1039.18 413.43 1037.20 421.26 C 1035.02 429.60 1028.13 435.67 1021.09 440.11 C 1007.55 448.36 991.65 451.70 976.02 453.02 C 954.92 454.28 933.29 451.63 913.76 443.24 C 903.28 438.61 893.01 432.25 886.48 422.59 C 881.77 415.85 880.94 406.36 885.21 399.21 C 889.36 392.13 896.26 387.17 903.39 383.38 C 915.10 377.40 928.14 374.46 941.17 373.20 Z" />
<path fill="#000000" stroke="#000000" stroke-width="0.09375" opacity="1.00" d=" M 1287.39 426.59 C 1311.28 423.40 1336.03 427.87 1357.66 438.38 C 1369.54 444.45 1380.99 452.29 1388.69 463.39 C 1395.34 473.29 1399.10 485.87 1395.81 497.67 C 1392.54 509.57 1383.39 519.04 1372.68 524.73 C 1353.12 535.33 1329.83 536.72 1308.20 533.37 C 1287.56 529.81 1267.13 521.75 1251.50 507.50 C 1240.88 497.72 1232.63 483.70 1234.03 468.83 C 1235.48 453.73 1246.75 441.38 1259.96 434.94 C 1268.51 430.53 1277.90 427.99 1287.39 426.59 Z" />
<path fill="#ff002c" stroke="#ff002c" stroke-width="0.09375" opacity="1.00" d=" M 1291.14 444.22 C 1311.82 442.07 1333.25 445.63 1351.76 455.25 C 1360.87 459.92 1369.08 466.62 1374.81 475.15 C 1378.51 480.41 1380.32 487.32 1378.45 493.61 C 1376.86 499.20 1372.66 503.63 1368.00 506.88 C 1360.82 511.85 1352.27 514.40 1343.75 515.84 C 1323.69 519.02 1302.76 515.90 1284.18 507.80 C 1274.12 503.25 1264.51 496.99 1257.75 488.13 C 1253.40 482.46 1250.60 475.05 1252.27 467.89 C 1253.67 461.70 1258.30 456.84 1263.43 453.40 C 1271.65 447.94 1281.44 445.41 1291.14 444.22 Z" />
<path fill="#c18300" stroke="#c18300" stroke-width="0.09375" opacity="1.00" d=" M 1021.96 538.70 C 1032.38 529.23 1045.82 522.93 1059.97 522.16 C 1081.93 520.52 1102.80 532.86 1115.42 550.29 C 1084.47 544.96 1053.23 541.45 1021.96 538.70 Z" />
<path fill="#c18300" stroke="#c18300" stroke-width="0.09375" opacity="1.00" d=" M 1152.74 557.18 C 1162.71 552.40 1174.05 550.70 1185.05 550.60 C 1203.91 550.13 1222.93 556.41 1237.58 568.34 C 1247.15 575.98 1254.66 586.00 1259.88 597.04 C 1226.82 577.63 1190.08 565.26 1152.74 557.18 Z" />
<path fill="#ffd400" stroke="#ffd400" stroke-width="0.09375" opacity="1.00" d=" M 854.43 553.28 C 864.25 552.18 874.15 553.02 883.98 552.06 C 901.33 551.71 918.68 551.65 936.04 551.82 C 962.71 551.58 989.29 554.13 1015.85 556.21 C 1049.84 560.53 1082.86 570.63 1114.56 583.42 C 1143.62 595.39 1170.88 611.78 1194.79 632.21 C 1222.44 655.56 1246.67 682.69 1268.58 711.43 C 1270.80 714.29 1272.93 717.24 1274.80 720.36 C 1264.35 728.27 1255.18 737.69 1246.18 747.19 C 1243.00 750.25 1239.75 754.20 1234.99 754.44 C 1230.08 755.02 1226.04 751.50 1223.10 748.01 C 1218.35 742.14 1215.07 735.28 1210.87 729.04 C 1188.87 694.30 1158.92 664.38 1123.28 643.71 C 1087.68 622.94 1046.35 611.49 1005.05 612.90 C 954.21 614.13 904.58 635.00 866.85 668.87 C 822.67 708.17 794.65 763.86 785.22 821.91 C 777.04 870.96 782.21 922.01 799.19 968.70 C 819.64 1025.22 858.30 1075.77 909.98 1107.05 C 942.76 1127.03 980.59 1139.00 1019.03 1140.26 C 1057.58 1141.61 1096.35 1131.84 1129.98 1113.02 C 1158.10 1097.42 1182.54 1075.53 1201.99 1049.99 C 1205.96 1045.01 1209.54 1039.53 1214.78 1035.77 C 1218.50 1033.02 1223.65 1032.01 1227.93 1034.10 C 1235.13 1037.51 1239.68 1044.34 1244.91 1050.05 C 1274.09 1082.90 1314.63 1105.68 1358.14 1112.41 C 1365.85 1113.54 1374.57 1115.97 1378.81 1123.14 C 1383.95 1131.82 1383.15 1142.36 1382.95 1152.05 C 1381.63 1163.03 1382.15 1174.33 1378.94 1185.01 C 1377.81 1189.14 1374.60 1193.23 1370.00 1193.37 C 1361.92 1193.75 1354.29 1190.49 1346.57 1188.64 C 1341.02 1187.29 1335.66 1185.08 1329.99 1184.37 C 1324.06 1183.81 1318.75 1190.21 1321.04 1195.88 C 1322.30 1199.88 1326.48 1201.59 1330.21 1202.57 C 1349.05 1207.50 1367.33 1215.33 1383.02 1227.01 C 1396.00 1236.71 1407.21 1249.20 1413.94 1264.06 C 1420.31 1278.03 1422.29 1293.88 1420.02 1309.04 C 1417.02 1329.90 1406.44 1349.04 1392.73 1364.78 C 1389.08 1368.52 1385.89 1373.45 1386.62 1378.92 C 1388.13 1389.61 1389.82 1400.29 1391.69 1410.94 C 1394.84 1429.25 1398.95 1447.46 1400.29 1466.03 C 1400.80 1477.09 1400.65 1488.42 1397.07 1499.03 C 1393.72 1508.97 1387.73 1517.93 1380.36 1525.36 C 1371.20 1534.47 1359.74 1540.93 1347.82 1545.68 C 1325.83 1554.33 1301.46 1556.46 1278.18 1552.79 C 1258.34 1549.18 1238.71 1541.83 1223.01 1528.91 C 1211.83 1519.80 1201.66 1509.36 1193.63 1497.35 C 1191.61 1493.91 1187.65 1491.40 1183.59 1492.24 C 1178.15 1493.02 1174.79 1499.69 1177.47 1504.53 C 1180.67 1510.67 1185.28 1515.95 1189.62 1521.32 C 1203.24 1536.68 1219.18 1550.54 1238.11 1558.93 C 1260.22 1568.86 1284.70 1574.06 1308.96 1572.32 C 1317.13 1571.50 1325.71 1571.30 1333.45 1574.48 C 1339.46 1577.13 1341.57 1584.07 1342.77 1590.00 C 1345.28 1604.18 1344.76 1618.68 1344.49 1633.02 C 1344.05 1679.01 1344.04 1725.02 1344.16 1771.02 C 1344.26 1792.01 1344.22 1813.02 1345.12 1834.00 C 1345.28 1846.34 1345.22 1858.69 1345.95 1871.01 C 1347.10 1914.03 1349.25 1957.02 1351.30 2000.00 L 778.84 2000.00 C 774.02 1944.13 768.97 1888.26 767.05 1832.23 C 765.80 1820.55 766.90 1808.76 765.64 1797.08 C 765.21 1780.03 765.38 1762.98 765.22 1745.93 C 763.96 1721.63 764.59 1697.28 764.44 1672.95 C 764.40 1644.28 764.52 1615.62 764.68 1586.95 C 765.95 1561.34 765.00 1535.67 766.03 1510.05 C 766.67 1498.00 765.68 1485.97 765.67 1473.94 C 765.25 1458.03 765.61 1442.10 765.11 1426.20 C 763.84 1414.50 764.95 1402.70 763.75 1391.00 C 763.06 1383.18 763.74 1375.31 762.87 1367.51 C 762.48 1363.69 762.37 1359.86 762.38 1356.04 C 762.51 1348.68 761.12 1341.40 761.37 1334.05 C 758.42 1278.26 753.93 1222.54 750.83 1166.76 C 748.29 1118.15 746.13 1069.52 742.86 1020.95 C 737.70 941.90 729.70 863.03 724.43 783.99 C 724.27 775.96 723.10 768.00 723.22 759.96 C 721.87 749.35 722.72 738.64 721.80 728.01 C 721.40 718.00 721.54 707.97 722.24 697.99 C 722.19 681.51 724.31 665.07 727.72 648.96 C 731.75 630.04 739.18 611.55 751.32 596.35 C 761.67 583.57 773.98 572.56 786.96 562.53 C 808.90 556.45 831.75 554.29 854.43 553.28 Z" />
<path fill="#8f6900" stroke="#8f6900" stroke-width="0.09375" opacity="1.00" d=" M 1015.85 556.21 C 1052.29 558.75 1088.57 563.50 1124.56 569.73 C 1160.97 576.08 1197.22 585.28 1230.66 601.37 C 1258.20 614.35 1283.58 632.34 1303.64 655.35 C 1309.98 662.83 1317.61 669.96 1320.33 679.70 C 1321.83 684.76 1318.68 689.70 1315.03 692.93 C 1308.96 698.11 1302.06 702.18 1295.23 706.25 C 1288.12 710.51 1281.46 715.45 1274.80 720.36 C 1272.93 717.24 1270.80 714.29 1268.58 711.43 C 1246.67 682.69 1222.44 655.56 1194.79 632.21 C 1170.88 611.78 1143.62 595.39 1114.56 583.42 C 1082.86 570.63 1049.84 560.53 1015.85 556.21 Z" />
<path fill="#8f6900" stroke="#8f6900" stroke-width="0.09375" opacity="1.00" d=" M 755.64 575.62 C 765.59 570.23 775.94 565.30 786.96 562.53 C 773.98 572.56 761.67 583.57 751.32 596.35 C 739.18 611.55 731.75 630.04 727.72 648.96 C 724.31 665.07 722.19 681.51 722.24 697.99 C 721.54 707.97 721.40 718.00 721.80 728.01 C 722.72 738.64 721.87 749.35 723.22 759.96 C 723.10 768.00 724.27 775.96 724.43 783.99 C 729.70 863.03 737.70 941.90 742.86 1020.95 C 746.13 1069.52 748.29 1118.15 750.83 1166.76 C 753.93 1222.54 758.42 1278.26 761.37 1334.05 C 761.12 1341.40 762.51 1348.68 762.38 1356.04 C 762.37 1359.86 762.48 1363.69 762.87 1367.51 C 763.74 1375.31 763.06 1383.18 763.75 1391.00 C 764.95 1402.70 763.84 1414.50 765.11 1426.20 C 765.61 1442.10 765.25 1458.03 765.67 1473.94 C 765.68 1485.97 766.67 1498.00 766.03 1510.05 C 765.00 1535.67 765.95 1561.34 764.68 1586.95 C 764.52 1615.62 764.40 1644.28 764.44 1672.95 C 764.59 1697.28 763.96 1721.63 765.22 1745.93 C 765.38 1762.98 765.21 1780.03 765.64 1797.08 C 766.90 1808.76 765.80 1820.55 767.05 1832.23 C 768.97 1888.26 774.02 1944.13 778.84 2000.00 L 761.42 2000.00 C 754.42 1905.45 748.39 1810.80 745.53 1716.02 C 744.56 1687.68 744.31 1659.31 744.58 1630.94 C 744.65 1626.83 743.47 1622.51 740.50 1619.55 C 737.59 1616.72 732.53 1616.82 729.68 1619.68 C 727.32 1622.10 726.43 1625.57 726.40 1628.88 C 726.11 1654.93 726.51 1680.98 726.72 1707.03 C 726.61 1715.69 727.44 1724.32 727.35 1732.99 C 727.61 1746.98 727.31 1761.00 728.21 1774.97 C 728.65 1787.63 728.29 1800.31 729.25 1812.95 C 729.60 1823.96 729.43 1834.99 730.30 1845.99 C 730.37 1862.35 731.60 1878.67 731.71 1895.03 C 732.77 1907.67 732.22 1920.38 733.30 1933.03 C 733.34 1945.71 734.55 1958.34 734.73 1971.03 C 735.80 1980.65 735.11 1990.38 736.34 2000.00 L 594.32 2000.00 C 593.75 1994.68 593.61 1989.34 593.54 1984.01 C 593.49 1975.31 592.51 1966.64 592.67 1957.94 C 592.47 1940.97 592.62 1923.98 591.79 1907.03 C 591.57 1893.34 591.56 1879.65 591.20 1865.97 C 590.33 1851.64 590.75 1837.28 590.16 1822.94 C 589.33 1810.65 589.74 1798.31 589.18 1786.01 C 588.31 1774.02 588.77 1761.98 588.11 1749.98 C 587.28 1738.68 587.83 1727.33 586.96 1716.04 C 585.09 1657.31 581.72 1598.66 578.10 1540.02 C 574.67 1487.82 571.48 1435.60 567.81 1383.41 C 599.07 1384.19 630.46 1383.66 661.47 1379.35 C 668.59 1378.13 675.94 1377.36 682.64 1374.49 C 687.62 1372.22 689.81 1366.77 690.76 1361.73 C 698.30 1326.40 700.20 1290.06 698.85 1254.03 C 697.60 1211.35 690.89 1168.75 678.08 1127.98 C 673.33 1113.51 668.77 1098.84 661.50 1085.39 C 659.37 1081.19 654.66 1079.16 650.14 1079.08 C 634.87 1078.52 619.62 1079.92 604.47 1081.65 C 585.13 1083.85 565.96 1087.62 547.31 1093.18 C 545.39 1069.33 543.82 1045.45 542.13 1021.59 C 538.39 972.76 535.90 923.87 533.51 874.97 C 531.12 832.96 529.65 790.90 526.63 748.92 C 525.86 731.30 523.48 713.65 524.83 696.00 C 525.51 687.43 533.01 682.04 539.25 677.23 C 582.88 646.15 629.88 620.05 678.27 597.17 C 682.79 595.13 688.02 593.29 692.94 595.04 C 696.33 596.13 698.34 599.57 698.73 602.97 C 699.70 609.76 697.39 616.36 695.58 622.81 C 692.09 635.07 690.43 647.82 690.30 660.57 C 689.49 671.27 689.55 682.03 690.26 692.74 C 690.47 712.21 691.95 731.61 692.92 751.04 C 694.41 775.04 695.76 799.05 697.50 823.04 C 699.83 855.69 702.90 888.29 705.50 920.92 C 707.70 947.93 709.59 974.96 711.48 1001.98 C 713.25 1029.64 715.78 1057.27 715.61 1085.01 C 715.57 1088.87 716.11 1093.13 718.91 1096.05 C 721.47 1098.76 725.97 1099.24 729.02 1097.05 C 732.50 1094.61 733.61 1090.06 733.42 1086.02 C 732.85 1047.95 729.49 1010.01 726.92 972.05 C 723.15 914.97 717.22 858.05 713.56 800.96 C 712.12 779.32 710.96 757.66 709.60 736.01 C 708.20 706.69 706.07 677.24 708.57 647.91 C 709.82 633.75 713.71 619.58 721.60 607.63 C 730.17 594.44 741.75 583.11 755.64 575.62 Z" />
<path fill="#c18300" stroke="#c18300" stroke-width="0.09375" opacity="1.00" d=" M 1289.85 617.84 C 1300.30 617.18 1311.42 619.49 1319.41 626.63 C 1331.31 636.95 1336.02 652.93 1338.00 668.03 C 1323.18 650.20 1307.96 632.45 1289.85 617.84 Z" />
<path fill="#ededed" stroke="#ededed" stroke-width="0.09375" opacity="1.00" d=" M 999.09 631.09 C 1038.82 628.60 1079.05 638.57 1113.46 658.49 C 1161.08 685.99 1197.91 730.81 1217.85 781.86 C 1235.02 823.42 1240.76 869.36 1236.22 913.99 C 1232.15 952.50 1219.72 990.26 1198.99 1023.05 C 1179.21 1054.46 1151.71 1081.21 1118.96 1098.85 C 1085.60 1116.96 1046.88 1124.98 1009.08 1121.59 C 972.46 1118.65 937.02 1105.02 907.02 1083.95 C 877.81 1063.49 853.56 1036.23 835.76 1005.38 C 791.78 929.47 787.02 831.60 825.67 752.56 C 848.02 706.55 885.91 667.50 933.10 647.02 C 953.94 637.88 976.39 632.58 999.09 631.09 Z" />
<path fill="#ededed" stroke="#ededed" stroke-width="0.09375" opacity="1.00" d=" M 1332.44 707.45 C 1342.24 704.10 1352.48 700.14 1363.03 701.87 C 1367.72 702.90 1370.64 707.51 1371.25 712.03 C 1373.01 727.21 1366.77 741.83 1367.20 756.97 C 1366.98 764.50 1368.72 771.88 1370.86 779.04 C 1371.43 780.49 1369.61 781.07 1368.80 781.83 C 1356.33 790.74 1347.07 803.32 1339.48 816.46 C 1329.08 834.97 1323.42 855.90 1321.70 876.99 C 1321.63 887.33 1321.05 897.76 1322.68 908.02 C 1325.51 930.06 1333.23 951.68 1346.25 969.78 C 1357.07 984.88 1372.01 997.33 1389.59 1003.68 C 1404.33 1009.10 1420.73 1009.93 1435.84 1005.48 C 1455.08 1000.13 1471.78 987.57 1483.91 971.89 C 1492.89 960.26 1499.84 947.03 1504.31 933.04 C 1481.31 923.04 1458.43 912.79 1435.48 902.69 C 1431.14 901.00 1427.14 896.97 1427.43 892.03 C 1427.33 887.96 1430.44 884.87 1433.58 882.76 C 1457.09 867.48 1480.71 852.37 1504.17 837.01 C 1499.15 820.29 1489.86 804.74 1477.94 791.97 C 1484.05 781.17 1486.15 768.27 1483.94 756.06 C 1483.16 748.66 1479.80 741.55 1480.63 734.02 C 1480.85 730.76 1482.30 726.84 1485.89 726.10 C 1491.09 725.22 1495.93 728.16 1499.95 731.13 C 1528.02 752.27 1549.00 782.07 1561.38 814.82 C 1577.16 856.52 1579.18 903.07 1568.00 946.17 C 1559.28 980.03 1542.24 1011.80 1518.36 1037.39 C 1495.20 1062.28 1465.42 1081.24 1432.56 1090.32 C 1392.26 1101.57 1347.75 1097.63 1310.41 1078.55 C 1292.86 1069.68 1276.87 1057.79 1263.21 1043.66 C 1252.51 1032.59 1242.13 1019.73 1239.85 1004.01 C 1238.12 996.08 1239.67 987.98 1241.29 980.18 C 1246.85 956.01 1253.35 931.88 1254.87 907.03 C 1257.02 882.96 1255.39 858.69 1251.75 834.85 C 1249.72 822.25 1246.87 809.76 1245.91 797.02 C 1245.25 782.36 1252.21 768.48 1261.25 757.36 C 1280.71 735.58 1305.00 717.74 1332.44 707.45 Z" />
<path fill="#000000" stroke="#000000" stroke-width="0.09375" opacity="1.00" d=" M 1129.40 745.59 C 1140.10 742.29 1152.37 750.43 1153.78 761.48 C 1155.46 769.48 1150.78 776.71 1147.45 783.59 C 1138.01 802.47 1128.58 821.34 1119.14 840.22 C 1114.98 848.32 1111.20 856.86 1110.00 865.96 C 1109.12 873.55 1114.35 879.66 1118.46 885.41 C 1134.88 907.60 1151.80 929.42 1168.45 951.44 C 1171.79 956.00 1175.80 960.30 1177.49 965.82 C 1180.24 973.59 1177.23 982.86 1170.64 987.73 C 1164.53 992.50 1155.46 993.04 1148.83 989.04 C 1144.61 986.72 1141.60 982.84 1138.76 979.07 C 1123.80 959.43 1108.89 939.76 1093.91 920.14 C 1091.81 917.01 1087.64 915.84 1084.08 916.63 C 1081.06 917.39 1079.23 920.16 1077.89 922.76 C 1065.61 947.18 1053.53 971.70 1041.16 996.06 C 1037.41 1003.83 1028.88 1009.27 1020.17 1008.28 C 1016.33 1007.58 1012.49 1006.17 1009.58 1003.50 C 1003.23 998.14 1000.92 988.65 1004.08 980.96 C 1006.92 973.77 1010.83 967.06 1014.14 960.09 C 1025.23 937.91 1036.33 915.72 1047.42 893.53 C 1050.85 886.82 1054.86 879.76 1054.02 871.93 C 1053.36 865.57 1048.60 860.92 1045.11 855.96 C 1029.02 834.72 1012.84 813.55 996.75 792.32 C 993.22 787.69 990.62 782.02 991.28 776.08 C 991.61 764.01 1005.16 754.59 1016.57 758.69 C 1023.99 760.76 1028.53 767.35 1032.89 773.19 C 1043.69 787.39 1054.49 801.59 1065.29 815.80 C 1067.43 818.63 1069.57 821.84 1073.09 823.11 C 1077.63 825.33 1083.12 822.29 1085.11 817.96 C 1094.67 799.21 1103.96 780.32 1113.41 761.51 C 1116.50 754.47 1121.51 747.50 1129.40 745.59 Z" />
<path fill="#ffd400" stroke="#ffd400" stroke-width="0.09375" opacity="1.00" d=" M 607.75 1103.75 C 614.49 1099.87 622.50 1099.69 630.05 1099.27 C 635.65 1099.34 642.11 1099.42 646.29 1103.75 C 651.95 1109.37 654.57 1117.15 657.57 1124.36 C 665.00 1143.57 669.57 1163.73 673.42 1183.92 C 678.40 1210.33 680.33 1237.20 681.17 1264.02 C 681.30 1285.53 679.68 1306.97 677.83 1328.36 C 670.24 1325.89 662.14 1325.30 654.72 1322.25 C 645.42 1318.83 637.47 1312.14 632.32 1303.70 C 629.66 1299.19 626.72 1294.41 626.86 1288.99 C 629.41 1242.50 622.34 1196.02 610.60 1151.12 C 607.72 1139.19 603.34 1127.44 603.07 1115.04 C 602.99 1110.91 603.77 1105.92 607.75 1103.75 Z" />
<path fill="#8f6900" stroke="#8f6900" stroke-width="0.09375" opacity="1.00" d=" M 536.14 1115.42 C 545.36 1112.32 554.97 1108.21 564.89 1110.30 C 571.53 1111.45 576.34 1116.81 579.67 1122.32 C 584.21 1130.01 587.19 1138.50 589.97 1146.96 C 602.95 1187.96 609.98 1230.98 609.48 1274.03 C 609.50 1288.04 608.50 1302.02 607.50 1315.99 C 607.31 1321.84 605.66 1327.70 606.61 1333.56 C 607.40 1338.73 613.77 1342.15 618.41 1339.48 C 622.39 1337.61 623.59 1333.04 623.96 1329.04 C 625.37 1315.72 626.18 1302.36 626.86 1288.99 C 626.72 1294.41 629.66 1299.19 632.32 1303.70 C 637.47 1312.14 645.42 1318.83 654.72 1322.25 C 662.14 1325.30 670.24 1325.89 677.83 1328.36 C 676.57 1336.62 675.76 1345.66 670.33 1352.42 C 664.55 1359.14 655.39 1361.01 647.08 1362.51 C 625.28 1366.18 603.09 1365.55 581.07 1365.63 C 567.63 1365.59 554.14 1365.20 540.84 1363.16 C 535.42 1362.25 529.38 1360.57 526.35 1355.57 C 522.45 1348.97 520.86 1341.35 518.97 1334.01 C 507.78 1287.44 501.06 1239.82 498.55 1192.02 C 498.25 1177.08 497.51 1162.02 499.61 1147.17 C 500.81 1139.87 502.69 1131.56 509.43 1127.34 C 517.66 1122.05 527.02 1118.84 536.14 1115.42 Z" />
<path fill="#000000" stroke="#000000" stroke-width="0.09375" opacity="1.00" d=" M 1298.58 1237.70 C 1319.41 1234.84 1340.72 1242.10 1357.04 1254.97 C 1375.22 1269.14 1384.91 1293.24 1382.03 1316.05 C 1380.59 1330.39 1376.63 1344.48 1370.57 1357.56 C 1367.91 1363.64 1365.33 1369.76 1362.96 1375.96 C 1358.56 1387.35 1357.02 1399.83 1358.45 1411.95 C 1359.34 1426.61 1362.35 1441.34 1359.98 1456.02 C 1358.63 1466.13 1354.64 1476.11 1347.47 1483.52 C 1335.48 1495.81 1317.74 1500.76 1300.97 1500.98 C 1283.16 1501.70 1265.56 1496.41 1249.87 1488.25 C 1235.08 1480.01 1222.69 1467.74 1213.24 1453.77 C 1205.40 1441.56 1199.81 1428.01 1195.68 1414.14 C 1189.20 1391.40 1188.64 1366.96 1194.23 1343.97 C 1198.79 1324.94 1207.73 1307.13 1219.33 1291.43 C 1228.97 1278.21 1240.65 1266.49 1253.95 1256.97 C 1267.09 1247.27 1282.33 1240.09 1298.58 1237.70 Z" />
<path fill="#ededed" stroke="#ededed" stroke-width="0.09375" opacity="1.00" d=" M 1313.13 1256.24 C 1322.50 1256.22 1331.87 1259.17 1339.47 1264.67 C 1345.92 1269.59 1348.10 1278.41 1346.76 1286.15 C 1345.20 1294.37 1343.58 1302.66 1340.46 1310.46 C 1339.12 1313.78 1336.88 1317.37 1333.05 1318.01 C 1323.05 1320.08 1312.78 1318.36 1302.87 1316.65 C 1294.60 1314.80 1285.97 1312.99 1278.83 1308.20 C 1275.00 1305.83 1274.82 1300.85 1275.54 1296.89 C 1276.82 1288.48 1280.05 1280.54 1282.59 1272.47 C 1284.49 1266.22 1289.35 1260.79 1295.66 1258.84 C 1301.26 1256.77 1307.23 1256.54 1313.13 1256.24 Z" />
<path fill="#ff002c" stroke="#ff002c" stroke-width="0.09375" opacity="1.00" d=" M 1219.39 1407.51 C 1224.13 1405.72 1229.42 1406.71 1234.23 1407.76 C 1255.65 1413.60 1272.87 1431.37 1279.42 1452.40 C 1280.50 1455.88 1281.64 1459.96 1285.27 1461.64 C 1289.56 1464.05 1295.62 1461.70 1297.13 1457.02 C 1299.04 1452.05 1296.26 1447.00 1294.74 1442.33 C 1293.58 1438.70 1290.57 1435.04 1292.14 1431.09 C 1293.88 1427.00 1298.92 1426.27 1302.86 1426.42 C 1308.75 1427.37 1314.41 1429.57 1319.67 1432.39 C 1325.84 1435.89 1331.87 1440.38 1335.06 1446.93 C 1338.79 1453.42 1340.43 1461.81 1336.73 1468.67 C 1330.84 1476.82 1320.74 1480.56 1311.15 1482.10 C 1292.40 1485.40 1272.92 1480.76 1256.46 1471.61 C 1236.88 1459.60 1222.48 1439.90 1215.91 1417.99 C 1215.20 1414.30 1215.03 1408.94 1219.39 1407.51 Z" />
<path fill="#000000" stroke="#000000" stroke-width="0.09375" opacity="1.00" d=" M 729.68 1619.68 C 732.53 1616.82 737.59 1616.72 740.50 1619.55 C 743.47 1622.51 744.65 1626.83 744.58 1630.94 C 744.31 1659.31 744.56 1687.68 745.53 1716.02 C 748.39 1810.80 754.42 1905.45 761.42 2000.00 L 736.34 2000.00 C 735.11 1990.38 735.80 1980.65 734.73 1971.03 C 734.55 1958.34 733.34 1945.71 733.30 1933.03 C 732.22 1920.38 732.77 1907.67 731.71 1895.03 C 731.60 1878.67 730.37 1862.35 730.30 1845.99 C 729.43 1834.99 729.60 1823.96 729.25 1812.95 C 728.29 1800.31 728.65 1787.63 728.21 1774.97 C 727.31 1761.00 727.61 1746.98 727.35 1732.99 C 727.44 1724.32 726.61 1715.69 726.72 1707.03 C 726.51 1680.98 726.11 1654.93 726.40 1628.88 C 726.43 1625.57 727.32 1622.10 729.68 1619.68 Z" />
</svg>
